<?xml version="1.0" encoding="utf-8"?>
<!-- Generator: Adobe Illustrator 22.1.0, SVG Export Plug-In . SVG Version: 6.00 Build 0)  -->
<svg version="1.1" id="Layer_1" xmlns="http://www.w3.org/2000/svg" xmlns:xlink="http://www.w3.org/1999/xlink" x="0px" y="0px"
	 viewBox="0 0 472.2 58.9" style="enable-background:new 0 0 472.2 58.9;" xml:space="preserve">
<style type="text/css">
	.st0{fill:#FFFFFF;}
</style>
<g>
	<path class="st0" d="M24.6,17.5c0-0.1,0.6-1,0.5-1.2c0.7-1.5-0.1-2.6-0.1-2.6c-0.3-0.4-1.3-2.1-2.4-2.6c-0.2-0.1-0.5-0.3-0.5-0.5
		c0,0-0.3,0-0.5-0.1s-0.3-0.3-0.6-0.4c-0.4-0.3-0.8-0.6-1.2-0.8C19,8.7,18,8.4,17.1,8.1c-1-0.3-2.2-0.7-3.3-0.9c-1-0.2-2-0.2-3-0.2
		C10,7,8.3,7.2,8,7.2C7.8,7,7.8,6.7,7.8,6.4c0-0.5,0-0.9-0.3-1.3C6.9,4.4,4.7,4.2,4.7,4.4c0,0.2,0.3,0.3,0.2,0.4
		c-0.2,0,0,0.3-0.2,0.3c0.6,0.6,0.1,1.4-0.1,2c-0.1,0.3,0,0.9-0.3,1C4.1,8.3,3.9,8.3,3.7,8.3C3.2,8.4,1.3,8.5,1.4,8.7
		c0,0,0,0.1-0.1,0.1C1.3,8.9,1.4,9,1.2,9c0,0,0,0-0.3,0C0.8,9.3,1.1,9.5,1.3,9.8c0.4,0.7,1.3,1.5,1.9,1.2c0,0.1,0.3,0.2,0.4,0.2
		c-0.1,0.3-0.7,2-0.7,2.3c-0.1,0.3-2.2,9.5-2.2,9.9c-0.1,0.6,0,1.2-0.3,1.7c0,0.5-0.3,0.8,0,1.2c0.1,0,0.2-0.3,0.2-0.4
		c0.3,0.2-0.2,0.8-0.3,0.9c-0.1,0.5,0.1,0.9,0,1.4c0.2,0.1,0.1-0.4,0.2-0.3c0.3,0,0,0.3,0,0.4c0.3,0,0.2,1.4-0.2,1.4
		c-0.2,1.7,0.1,3.6,0.3,5.4c0.3,0,0.3,0.5,0.3,0.6c0,0.2,0,0.3,0,0.5C1,36.5,1,36.8,1,37.1c0,0.6,0.1,1.1,0.3,1.7
		c0.2,0.7,0.3,2.4,1,2.7c0.5,0,0.6-0.4,0.8-0.7c0.3,0,0.3-1,0.4-1.3c0-0.6,0.3-1.1,0.3-1.7c0.2,0,0.1-1.4,0.2-1.6
		c0-0.9,0.3-3.2,0.6-3.6c0-0.3,0.3-0.3,0.3-0.6c0-0.2,0-0.5,0.2-0.6c-0.1,0-0.1,0-0.1-0.1c0.2,0.2,0.2,0,0.3,0
		c0.1-0.4,0-0.8,0.3-0.9c-0.3-0.1,0.1-0.4-0.1-0.6l0,0c0-0.3,0-0.3,0.2-0.5c0,0.1,0.5,0.8,0.6,1c0.4,0.7,0.9,1.3,1.4,1.9
		c0.6,0.7,1.1,1.4,1.8,2c0.6,0.5,1.8,1.9,2.6,2.5c0.7,0.5,1.5,1.1,2.1,1.4c0.9,0.5,1.7,0.9,2.6,1.1c0.4,0.1,0.9,0.1,1.4,0.3
		c0.3,0.1,0.7,0.1,1,0.1c0.9,0,1.2,0,1.3-0.3c-0.2-0.1-0.2-0.3,0-0.3c-0.1-0.3-0.6-0.3-0.9-0.4c-0.4-0.2-1.4-0.7-1.5-0.7
		c-0.6-0.2-1-0.6-1.4-0.8c-3.6-2.4-4.8-5.8-7.4-9c0.7-0.2,1.2-0.5,1.9-0.7c0.5-0.1,0.9-0.5,1.4-0.5c0.1-0.3,0.7-0.4,1-0.6
		c0.7-0.3,1.4-0.6,2-1c0.2,0,0.5-0.1,0.5-0.4c-0.5,0.3-1,0.6-1.6,0.7c-0.3,0.1-0.6,0.5-1,0.5c-0.3,0.1-0.3,0-0.4,0.1
		c-0.5,0.1-0.9,0.4-1.3,0.6c0.2-0.2,0.5-0.4,0.8-0.4c0.1-0.2,0.5-0.3,0.7-0.5c0.3-0.1,0.5-0.2,0.7-0.3c-0.3,0-0.6,0.3-0.8,0.2
		c0.4-0.2,0.8-0.4,1.3-0.6c-0.1,0-0.2,0-0.2,0c0.3-0.2,0.7-0.3,0.9-0.6c0.3-0.1,0.5-0.3,0.6-0.3c0.2-0.2,0.5-0.2,0.6-0.4
		c-0.5,0.2-1.4,0.9-1.9,0.7c0.7-0.3,1.4-0.6,2-1c0.8-0.6,1.7-0.7,2.4-1.4c-0.3,0-0.3,0.1-0.6,0.1c0.2-0.2,0.5-0.3,0.8-0.6
		c-0.8,0.2-1.3,0.8-2,1c0.4-0.4,1-0.7,1.4-1c0.3-0.2,0.9-0.8,1.3-0.6c0-0.3,1.1-1.1,1.3-0.9c0,0-0.1,0.1,0,0.1
		c0.4-0.4,1.1-0.5,1.4-1.1c-0.3,0.4-0.8,0.7-1.3,0.9c-0.2,0,0.2-0.3,0.1-0.3c0.1-0.1,0.3-0.2,0.5-0.3c0.3-0.3,0.6-0.9,1-0.8
		c0,0.1-0.4,0.1-0.3,0.3c0.3-0.3,0.6-0.6,0.7-1C23.9,18.5,24.4,17.7,24.6,17.5z M0.3,31.9c-0.2,0,0-0.2,0-0.3
		C0.4,31.8,0.4,31.9,0.3,31.9z M0.2,31.7c0-0.2,0.2-0.3,0.1-0.7c-0.2,0-0.2-0.2,0-0.3C0.4,31,0.4,31.5,0.2,31.7z M0.5,25.8
		c-0.1,0,0-0.3,0-0.3C0.6,25.5,0.6,25.7,0.5,25.8z M0.6,34.5c-0.1,0,0-0.2,0-0.2C0.7,34.3,0.7,34.5,0.6,34.5z M0.7,33.6
		c0-0.3-0.2-0.6-0.1-1.1C0.8,32.8,0.7,33.2,0.7,33.6z M0.8,29.7c-0.2,0-0.1-0.3,0-0.4C0.8,29.3,0.9,29.6,0.8,29.7z M0.7,25.3
		c-0.4-0.2,0.2-1.7,0.4-2c0-0.2,0-0.3,0-0.5C1.3,23.8,0.7,24.4,0.7,25.3z M5.2,31c-0.2,0,0-0.2,0-0.3C5.4,30.7,5.1,30.8,5.2,31z
		 M20.7,10c-0.4,0-0.7-0.5-1.2-0.6C20,9.3,20.3,9.8,20.7,10z M7.2,26.3c0-0.1,0.2-0.1,0.3-0.1C7.5,26.4,7.3,26.4,7.2,26.3z
		 M7.9,26.9c0.3-0.1,0.6-0.3,0.8-0.4c0.1-0.4,0.9-0.4,1.5-0.5c0-0.2,0.6-0.5,0.9-0.4c0.2-0.3,0.3,0,0.5,0.1
		c-0.4,0.4-1.1,0.5-1.6,0.5c0,0.1,0.1,0.2,0.2,0.2c-0.1,0-0.2,0-0.3,0.2c-0.1-0.1-0.3-0.1-0.3,0c0,0,0,0,0,0.1
		C9,26.7,8.5,27.5,7.9,26.9z M8.2,26.7c0-0.1,0.1-0.1,0.3-0.1C8.5,26.6,8.3,26.7,8.2,26.7z M9.2,28.1c0-0.2,0.2-0.1,0.3-0.3
		C9.6,28,9.3,28.1,9.2,28.1z M13.3,25.6c-0.3,0.1-0.4,0.3-0.6,0.5c-0.1,0-0.3,0-0.3,0s-0.1,0.1-0.1,0.2c-0.5,0.2-1.2,0.2-1.7,0.4
		c0,0.1,0,0.1,0,0.2c-0.2,0.1-0.3,0.3-0.6,0.3c0.1,0,0.2,0,0.3,0.1l-0.2,0.1c0.1,0,0.1,0,0.1,0c0.3-0.4,0.8-0.7,1.5-0.6
		c-0.2,0.2-0.5,0.3-0.8,0.4l0,0c0,0-0.1,0.2-0.3,0.3c0,0-0.2-0.1-0.2,0c-0.2,0-0.4,0.1-0.7,0.3c-0.4,0.1-0.7,0.5-1.2,0
		c0,0,0.1,0,0.2-0.2c-0.2,0-0.5,0.1-0.5-0.1c0.3-0.1,0.6-0.1,0.9-0.3c0.4-0.6,1.4-0.6,2-0.9c0.3-0.1,0.4-0.3,0.8-0.3
		C12.5,25.9,12.9,25.7,13.3,25.6c0.1,0,0.1,0,0.3,0C13.4,25.6,13.4,25.6,13.3,25.6z M12.3,25.2c-0.2,0.2-0.5,0.1-0.7,0.3
		C11.6,25.4,12,25.3,12.3,25.2z M12.2,25.1c0,0.1-0.2,0-0.3,0.1C11.8,25.2,12.1,25.1,12.2,25.1z M12.4,24.9L12.4,24.9
		C12.4,25,12.4,25,12.4,24.9z M12.7,25.5c0,0,0,0,0.2,0C12.8,25.5,12.8,25.5,12.7,25.5z M13.4,24.8c-0.5,0-0.2,0.1-0.4,0.3
		c0,0-0.2-0.2-0.3-0.1c0.5-0.4,1.2-0.6,1.8-0.8c-0.1,0.3-0.5,0.3-0.7,0.4C13.6,24.6,13.6,24.9,13.4,24.8z M13.7,25.1
		c0.3-0.2,0.6-0.3,0.9-0.4C14.3,24.9,14.1,25,13.7,25.1z M14.7,24.1c0-0.1,0-0.1,0.2-0.1L14.7,24.1z M11.8,25c0,0,0,0-0.2,0
		c-0.3,0.3-1,0.3-1.4,0.6c-0.4,0-1.1,0.5-1.5,0.6c-0.4,0.2-0.9,0.6-1.3,0.4c0-0.2,0.2-0.2,0.4-0.2c0.2-0.1,0.6-0.3,1-0.5
		c0.3,0,0.8-0.3,1-0.3c0,0,1.1-0.7,1.1-0.4c0.2,0,0.3-0.4,0.6-0.3c0,0,0,0-0.1-0.1c0.3,0,0.3-0.4,0.6-0.3c0.4,0.1,0.4-0.1,0.7-0.3
		c0.1-0.2,0.9-0.3,1.1-0.4c0.2,0,0.3-0.3,0.6-0.3c0.2,0,0.4,0,0.6,0C14.1,24.3,12.9,24.6,11.8,25z M8.6,25.8
		c0.6-0.3,1.2-0.6,1.8-0.9c0.3-0.1,0.6-0.3,0.9-0.4c0.2,0.1,0,0.3,0.2,0.1c-0.3,0.4-0.9,0.4-1.3,0.5c0,0-0.5,0.1-0.4,0.1
		C9.2,25.4,8.6,25.8,8,26C8.2,26,8.4,25.8,8.6,25.8L8.6,25.8z M11.1,24.3c0.2-0.1,0.3-0.2,0.4-0.2C11.5,24.3,11.4,24.3,11.1,24.3z
		 M7.5,26.2C7.6,26,7.9,26.1,8,26.1C7.9,26.1,7.7,26.2,7.5,26.2z M13.1,23.8c0.5-0.2,1-0.5,1.5-0.5C14.2,23.5,13.7,23.6,13.1,23.8z
		 M14.7,23.2H15C15,23.3,14.8,23.3,14.7,23.2z M15.2,23.9c0,0,0-0.3,0.3-0.3C15.4,23.9,15.3,23.8,15.2,23.9z M15.1,23.5
		c-0.1-0.2,0.4-0.3,0.6-0.3C15.6,23.4,15.3,23.3,15.1,23.5z M15.9,23.1c0-0.2,0.2,0,0.2-0.1C16.2,23.1,15.9,23.1,15.9,23.1z
		 M16.5,23.2c0,0.1,0,0.2-0.2,0.1C16.2,23.1,16.4,23.2,16.5,23.2c0.2,0,0.2-0.3,0.4-0.2C16.9,23.1,16.7,23.2,16.5,23.2z M16.7,22.8
		c0,0,0.2,0,0.2-0.1C17,22.8,16.9,23,16.7,22.8z M17,22.7c0-0.1,0.1,0,0.3,0C17.2,22.8,17.1,22.8,17,22.7z M21,16.9
		c-0.2,0.6-1,1.2-1.4,1.6c-0.5,0.4-1,0.8-1.5,1.2c-0.9,0.6-5.9,3.6-6.5,3.9c0.2,0,0.3-0.1,0.6,0c-0.3,0.5-1.1,0.8-1.6,0.8
		c0.1,0.2,0.3-0.1,0.5,0c-0.4,0.3-0.9,0.4-1.3,0.6c-0.6,0.3-1.2,0.5-2,0.7c-0.2,0.2-0.5,0.5-0.9,0.5C7,25.9,7,25.7,6.8,25.6
		c-0.1,0.3-0.1,0.6-0.6,0.5c0-0.2,0.3-1,0.3-1.3c0.2-0.9,0.6-1.6,0.6-1.7c0-0.2,0.1-0.4,0.1-0.7c0.1-0.5,0.2-1,0.3-1.5
		C7.3,21.2,7.1,21.7,7,22c0,0.2,0,0.5-0.3,0.6c0.5-0.9,1.4-8.8,1.3-9c0-0.6,0.2-1.5,0.3-2c0.8,0,1.5-0.2,2.3-0.3
		c0.9-0.1,2.1,0,2.8,0.1c1.4,0.3,2,0.3,3.3,0.7c1.2,0.4,3.2,1,4,2.1C21.1,14.9,21.3,15.9,21,16.9z M20.8,10.1
		c0.2-0.1,0.5,0.1,0.5,0.4C21.1,10.4,21,10.2,20.8,10.1z M23.9,17.2c-0.3,0-0.2,0.4-0.5,0.4c0-0.2,0.2-0.2,0.2-0.2
		c-0.3,0,0.4-0.6,0.6-0.8L24.1,17l0,0C24,16.9,24,17.1,23.9,17.2z"/>
	<path class="st0" d="M61.2,35.6c0,0.4-0.2,0.5-0.3,0.5c-0.8,0.3-1.3-0.3-1.4-0.9c-0.2-0.5-0.3-1-0.3-1.7c0-0.6,0.1-1.4,0.3-2
		c0.3-0.6,0.3-1.5,0.4-2.3c0.2-0.3,0.3-0.6,0.5-1c0.3-0.9,0.7-2.1,0.8-2.9c0.2-1.4-0.3-1.8-1.3-2.2c-0.1,0-0.2,0-0.3,0
		c-0.3,0-0.5-0.2-0.7-0.1c-0.1,0-0.3,0.1-0.5,0.2c-0.1-0.1,0-0.1-0.2-0.1c-0.1,0-0.3,0.1-0.5,0.2c-0.4,0-0.6,0-0.8,0.2
		c-0.5,0.4-1,0.9-1.5,1.4c-0.6,0.6-1,1.2-1.5,1.7c0.1-0.6,0.2-1.1,0.4-1.7c0.1-0.6,0.6-1.6,0.1-2.2c-0.3-0.4-0.4-0.3-0.9-0.4
		c-0.3,0-0.4-0.2-0.6-0.3c-0.6-0.2-1.1,0-1.8,0.3c-1.9,0.7-3.8,2.2-5.1,3.8c0,0.1-0.2,0.2-0.3,0.3c-0.6,0.7-0.1,0.3-0.9,0.9
		c0.5-1.7,0.7-2.1,1.2-3.8c0-0.3,0.1-0.7,0.2-0.9c-0.1-0.2-0.5-0.4-0.9-0.6c-0.4-0.1-0.9-0.5-1.1-0.2c0-0.2-0.3-0.3-0.5-0.4
		c0,0-0.1,0.1-0.2,0c-0.1,0-0.1-0.2-0.3-0.1c0-0.1,0,0-0.2,0.1c-0.3,0-0.4,0.2-0.6,0.3c-0.1,0-0.3,0-0.3,0s0,0,0,0.1
		c-0.2,0-0.3-0.1-0.3,0c-0.2,0.4-0.2,0.9-0.5,1.2c-0.2,0.4-1.3,3.3-2.1,5.8c-0.3,0.2-0.6,0.4-0.8,0.5s-0.3,0.1-0.5,0.3
		c-1.5,1-3.7,2.1-5.8,2.6c-0.9,0.2-2.2,0.4-3.1,0.4c-0.2-0.1-0.8-0.3-0.9-0.3c-1.5-0.2-1.2-1.9-0.9-2.3c0.4,0,0.6-0.3,0.9-0.5
		c0-0.1,0.3,0,0.4-0.1c0.4-0.2,0.7-0.6,0.9-0.7c0.1-0.1,0.4-0.2,0.5-0.3c0,0,1.1-0.6,1.2-0.8c0.5-0.4,1.2-0.7,1.6-1.1
		c0-0.2,0.5-0.4,0.5-0.6c0.3-0.4,0.7-0.6,1.1-1.1c0.1-0.4,0.5-0.6,0.3-1.4c0-0.1-0.2-0.2-0.3-0.3c-0.1-0.5-1.4-1.2-2.1-1.5
		c-0.2,0-0.3,0.2-0.3,0c-0.2,0-0.2-0.4-0.5-0.4c-0.8-0.2-1.8-0.4-2.7,0.3c-0.4,0.3-0.6,0.5-1.1,0.6c-0.4,0.4-0.8,0.6-1,0.9
		c-0.6,0.7-1.3,1.3-1.5,1.8c-0.2,0.2-0.3,0.4-0.3,0.6c-0.1,0.1-0.3,0.3-0.5,0.4c0,0.2,0,0.4-0.1,0.7C24,27,23,28.8,23.7,29.4
		C24.1,30,24,30,23.8,30c0.2,0.3-0.3,0.7-0.1,1.2c0,0.1,0.1,0.4,0.3,0.5c0.1,0,0.3,0,0.4,0c0.5,0.3,0.8,1.5,1.4,1.7
		c0.1,0,1.4,0.6,1.5,0.6c0.5,0.2,1,0.1,1.5,0.3c0.2,0,0.3,0,0.5,0.1c0.5,0.1,1,0.1,1.3,0c0.7,0,1.4-0.2,2-0.4c0.3,0,0.7,0,1-0.2
		c0.5-0.1,0.9-0.4,1.2-0.3c0.3-0.4,0.6-0.3,1-0.6c0.3-0.3,0.9-0.5,1.3-0.6c0.6-0.4,0.5-0.6,1.1-0.9c0.1-0.1,0.5-0.4,0.7-0.5
		c-0.2,0.8-0.3,1.4-0.2,1.6c0.1,0.1-0.1,0.3-0.1,0.6c0.1,0.1,0.3,0.3,0.6,0.6c0.4,0.2,0.6,0.4,1.2,0.3c0,0.1,0.3,0.2,0.3,0.2
		c0-0.1,0.1-0.2,0.3-0.2c0.2-0.2,0.3,0.2,0.3,0.1c0.1,0,0.2,0,0.2,0c0.1,0,0.6-0.3,0.7-0.2c0.3-0.5,0.3-0.6,0.6-0.7
		c0.2-0.1,0.8-1,0.9-1.2c0.7-1,0.9-1,1.7-2.2c0.7-0.6,1.4-1.4,2-2.2c0-0.2,0.6-0.5,0.8-0.6c0.1,0,0.3-0.2,0.4-0.5
		c0-0.1,0.1-0.3,0.2-0.3c0,0,0.1-0.1,0.2-0.2c0.5-0.3,0.9-0.9,1.3-1.3h0.2c0-0.1,0-0.1,0-0.2c0,0,0.2,0,0.3,0s0-0.1,0.1-0.3
		c0.4,0.2,0.3-0.3,0.7-0.2c-0.4,1-0.7,2-1.2,3.1c-0.4,1-0.9,2-1.2,2.9c-0.2,0.4-0.4,1-0.4,1.4c-0.1,0.5,0.2,0.7,0.2,1.2
		c0,0,0.3,0.1,0.3,0.3c0.3,0.3,0.8,0.9,1,1c0.2,0,0.5-0.3,0.8-0.1c0.2,0,0.4,0,0.4-0.3c1.6-0.9,2.6-2.8,3.8-4.2
		c0,0.5-0.2,0.9-0.3,1.4c0,0.4,0,0.9,0,1.3c0,0.8,0,1.4,0.2,2.1c0,0.1,0.2,0.3,0.2,0.4c0,0.1,0,0.3,0,0.3s0.3,0.2,0.3,0.3
		c-0.1,0.5,0,0.6,0.5,1c0.4,0.7,0.8,1,1.5,1.2c0.3,0.1,0.6,0.4,0.8,0.4c0.1,0.1,0.3,0,0.5,0c0.4,0.2,0.8,0.3,1.1,0.2
		c0.1,0,0.1,0,0.1-0.1c0.2-0.2,0.5-0.2,0.7-0.2c0-0.2-0.1,0-0.1-0.3c0,0,0.4,0,0.6-0.2c0.1-0.1,0.1-0.3,0.1-0.4c0,0,0,0,0.1-0.1
		s0.4-0.3,0.4-0.3c0.2-0.2,0-0.6-0.1-0.7C61.7,35.5,61.4,35.9,61.2,35.6z M31.9,24.3c0,0,0-0.1,0.3,0c0,0,0.1,0.3,0,0.6
		c-0.1,0.3-0.6,0.7-0.9,0.9c-0.9,0.6-1.8,1.5-2.7,2c0,0-0.2,0.1-0.2-0.1C29.3,26.5,30.5,25,31.9,24.3z"/>
	<path class="st0" d="M102,35.6c0,0.4-0.2,0.5-0.3,0.5c-0.8,0.3-1.3-0.3-1.4-0.9c-0.2-0.5-0.3-1-0.3-1.7c0-0.6,0.1-1.4,0.3-2
		c0.3-0.6,0.3-1.5,0.4-2.3c0.2-0.3,0.3-0.6,0.5-1c0.3-0.9,0.7-2.1,0.8-2.9c0.2-1.4-0.3-1.8-1.3-2.2c-0.1,0-0.2,0-0.3,0
		c-0.3,0-0.5-0.2-0.7-0.1c-0.1,0-0.3,0.1-0.5,0.2c-0.1-0.1,0-0.1-0.2-0.1c-0.1,0-0.3,0.1-0.5,0.2c-0.4,0-0.6,0-0.8,0.2
		c-0.5,0.4-1,0.9-1.5,1.4c-0.6,0.6-1,1.2-1.5,1.7c0.1-0.6,0.2-1.1,0.4-1.7c0.1-0.6,0.6-1.6,0.1-2.2c-0.3-0.4-0.4-0.3-0.9-0.4
		c-0.3,0-0.4-0.2-0.6-0.3c-0.6-0.2-1.1,0-1.8,0.3c-1.9,0.7-3.8,2.2-5.1,3.8c0,0.1-0.2,0.2-0.3,0.3c-0.6,0.7-0.1,0.3-0.9,0.9
		c0.5-1.7,0.7-2.1,1.2-3.8c0-0.3,0.1-0.7,0.2-0.9c-0.1-0.2-0.5-0.4-0.9-0.6c-0.1,0-0.5-0.4-0.8,0c0-0.2-0.3-0.3-0.5-0.4
		c0,0-0.1,0.1-0.2,0c-0.1,0-0.1-0.2-0.3-0.1c0-0.1,0,0-0.2,0.1c-0.3,0-0.4,0.2-0.6,0.3c-0.1,0-0.3,0-0.3,0s0,0,0,0.1
		c-0.2,0-0.3-0.1-0.3,0c-0.2,0.4-0.2,0.9-0.5,1.2c-0.2,0.4-1.3,3.3-2.1,5.8c-0.3,0.2-0.6,0.4-0.8,0.5c-0.2,0.1-0.3,0.1-0.5,0.3
		c-1.5,1-3.7,2.1-5.8,2.6c-0.9,0.2-2.2,0.4-3.1,0.4c-0.2-0.1-0.8-0.3-0.9-0.3c-1.5-0.2-1.2-1.9-0.9-2.3c0.4,0,0.6-0.3,0.9-0.5
		c0-0.1,0.3,0,0.4-0.1c0.4-0.2,0.7-0.6,0.9-0.7c0.1-0.1,0.4-0.2,0.5-0.3c0,0,1.1-0.6,1.2-0.8c0.5-0.4,1.2-0.7,1.6-1.1
		c0-0.2,0.5-0.4,0.5-0.6c0.3-0.4,0.7-0.6,1.1-1.1c0.1-0.4,0.5-0.6,0.3-1.4c0-0.1-0.2-0.2-0.3-0.3c-0.1-0.5-1.4-1.2-2.1-1.5
		c-0.2,0-0.3,0.2-0.3,0c-0.2,0-0.2-0.4-0.5-0.4c-0.8-0.2-1.8-0.4-2.7,0.3c-0.4,0.3-0.6,0.5-1.1,0.6c-0.4,0.4-0.8,0.6-1,0.9
		c-0.6,0.7-1.3,1.3-1.5,1.8c-0.2,0.2-0.3,0.4-0.3,0.6c-0.1,0.1-0.3,0.3-0.5,0.4c0,0.2,0,0.4-0.1,0.7c-0.2,0.5-1.2,2.3-0.5,2.9
		c0.1,0.4-0.1,0.4-0.2,0.4c0.2,0.3-0.3,0.7-0.1,1.2c0,0.1,0.1,0.4,0.3,0.5c0.1,0,0.3,0,0.4,0c0.5,0.3,0.8,1.5,1.4,1.7
		c0.1,0,1.4,0.6,1.5,0.6c0.5,0.2,1,0.1,1.5,0.3c0.2,0,0.3,0,0.5,0.1c0.5,0.1,1,0.1,1.3,0c0.7,0,1.4-0.2,2-0.4c0.3,0,0.7,0,1-0.2
		c0.5-0.1,0.9-0.4,1.2-0.3c0.3-0.4,0.6-0.3,1-0.6c0.3-0.3,0.9-0.5,1.3-0.6c0.6-0.4,0.5-0.6,1.1-0.9c0.1-0.1,0.5-0.4,0.7-0.5
		c-0.2,0.8-0.3,1.4-0.2,1.6c0.1,0.1-0.1,0.3-0.1,0.6c0.1,0.1,0.3,0.3,0.6,0.6c0.4,0.2,0.6,0.4,1.2,0.3c0,0.1,0.3,0.2,0.3,0.2
		c0-0.1,0.1-0.2,0.3-0.2c0.2-0.2,0.3,0.2,0.3,0.1c0.1,0,0.2,0,0.2,0c0.1,0,0.6-0.3,0.7-0.2c0.3-0.5,0.3-0.6,0.6-0.7
		c0.2-0.1,0.8-1,0.9-1.2c0.7-1,0.9-1,1.7-2.2c0.7-0.6,1.4-1.4,2-2.2c0-0.2,0.6-0.5,0.8-0.6c0.1,0,0.3-0.2,0.4-0.5
		c0-0.1,0.1-0.3,0.2-0.3c0,0,0.1-0.1,0.2-0.2c0.5-0.3,0.9-0.9,1.3-1.3h0.2c0-0.1,0-0.1,0-0.2c0,0,0.2,0,0.3,0c0.1,0,0-0.1,0.1-0.3
		c0.4,0.2,0.3-0.3,0.7-0.2c-0.4,1-0.7,2-1.2,3.1c-0.4,1-0.9,2-1.2,2.9c-0.2,0.4-0.4,1-0.4,1.4c-0.1,0.5,0.2,0.7,0.2,1.2
		c0,0,0.3,0.1,0.3,0.3c0.3,0.3,0.8,0.9,1,1c0.2,0,0.5-0.3,0.8-0.1c0.2,0,0.4,0,0.4-0.3c1.6-0.9,2.6-2.8,3.8-4.2
		c0,0.5-0.2,0.9-0.3,1.4c0,0.4,0,0.9,0,1.3c0,0.8,0,1.4,0.2,2.1c0,0.1,0.2,0.3,0.2,0.4c0,0.1,0,0.3,0,0.3s0.3,0.2,0.3,0.3
		c-0.1,0.5,0,0.6,0.5,1c0.4,0.7,0.8,1,1.5,1.2c0.3,0.1,0.6,0.4,0.8,0.4c0.1,0.1,0.3,0,0.5,0c0.4,0.2,0.8,0.3,1.1,0.2
		c0.1,0,0.1,0,0.1-0.1c0.2-0.2,0.5-0.2,0.7-0.2c0-0.2-0.1,0-0.1-0.3c0,0,0.4,0,0.6-0.2c0.1-0.1,0.1-0.3,0.1-0.4c0,0,0,0,0.1-0.1
		s0.4-0.3,0.4-0.3c0.2-0.2,0-0.6-0.1-0.7C102.4,35.5,102.2,35.9,102,35.6z M72.7,24.3c0,0,0-0.1,0.3,0c0,0,0.1,0.3,0,0.6
		c-0.1,0.3-0.6,0.7-0.9,0.9c-0.9,0.6-1.8,1.5-2.7,2c0,0-0.2,0.1-0.2-0.1C70.1,26.5,71.3,25,72.7,24.3z"/>
	<path class="st0" d="M129.2,8.3c0-0.3,0.3-0.4,0.1-0.6C129.3,7.9,129,8.1,129.2,8.3z"/>
	<path class="st0" d="M129,8.4c0,0,0.2-0.1,0.1-0.1C129,8.4,128.8,8.4,129,8.4z"/>
	<path class="st0" d="M108.2,34.2L108.2,34.2L108.2,34.2L108.2,34.2z"/>
	<path class="st0" d="M155.2,38.9c-0.1-0.1-0.4,0-0.6-0.2v-0.1c-0.3-0.3-0.4-1-0.5-1.5c-0.2-1.5,0.2-2.9,0.5-4.1
		c0.1-0.7,0.2-1.3,0.4-1.8c0,0,0.3-0.2,0.3-0.3c0.3-0.6,0.5-1.5,0.7-2.2c0.3-0.3,0.5-0.8,0.8-1.2c-0.3-0.2-0.6-0.3-0.5-0.9
		c-0.2-0.1-0.3-0.2-0.4-0.3c-0.3-0.4-0.3-0.6-0.6-0.7c0,0,0-0.2-0.1-0.2c-0.1-0.1-0.3-0.2-0.4-0.2c-0.2-0.2-0.5-0.3-0.7-0.5
		c-0.5-0.2-1.2,0-1.5-0.6c0.5-0.9,1-1.7,1.3-2.6c0.5-1.4,0.9-2.6,0.8-4.6c0,0-0.1-0.1-0.1-0.3c-0.4-0.5-1.1-0.8-1.6-1.3
		c-0.1-0.2-0.2-0.1-0.2-0.1c-0.2,0.2-0.4,0.2-0.5,0.3c-0.4,0.3-1.3,1.2-1.5,1.5c-0.4,0.4-0.7,0.7-0.8,1c0,0-0.2,0.1-0.2,0.2
		c0,0,0,0.1,0,0.2c0,0-0.2-0.1-0.3,0c0,0,0,0.2,0,0.3c0,0-0.2,0-0.3,0.1c-0.2,0.4-0.4,0.9-0.5,1.2c-0.2,0.5-0.6,2.1-0.5,2.9l0.3,0.3
		c0.2,0.7,0,0.2,0.3,0.6c0.2,0.2,0.4,0.3,0.6,0.5c-0.3,0.5-0.3,0.5-0.7,1.1c-0.6,0.7-0.7,0.8-1,1.1c-0.5,0.5-0.5,0.5-1.1,1.2
		c-0.3,0.4-1.1,0.9-1.8,1.5l0,0c-0.1,0-0.1,0.1-0.2,0.2c-1.5,1-3.7,2.1-5.8,2.6c-0.9,0.2-2.2,0.4-3.1,0.4c-0.2-0.1-0.8-0.3-0.9-0.3
		c-1.5-0.2-1.2-1.9-0.9-2.3c0.4,0,0.6-0.3,0.9-0.5c0-0.1,0.3,0,0.4-0.1c0.4-0.2,0.7-0.6,0.9-0.7c0.1-0.1,0.4-0.2,0.5-0.3
		c0,0,1.1-0.6,1.2-0.8c0.5-0.4,1.2-0.7,1.6-1.1c0-0.2,0.5-0.4,0.5-0.6c0.3-0.4,0.7-0.6,1.1-1.1c0.1-0.4,0.5-0.6,0.3-1.4
		c0-0.1-0.2-0.2-0.3-0.3c-0.1-0.5-1.4-1.2-2.1-1.5c-0.2,0-0.3,0.2-0.3,0c-0.2,0-0.2-0.4-0.5-0.4c-0.8-0.2-1.8-0.4-2.7,0.3
		c-0.4,0.3-0.6,0.5-1.1,0.6c-0.4,0.4-0.8,0.6-1,0.9c-0.6,0.7-1.3,1.3-1.5,1.8c-0.2,0.2-0.3,0.4-0.3,0.6c-0.1,0.1-0.3,0.3-0.5,0.4
		c0,0.2,0,0.4-0.1,0.7c-0.1,0.3-0.6,1.2-0.7,1.9c-1.2,0.5-2.2,0.7-3,0.7c-1.4,0-2.5-0.2-3-0.5c-0.3-0.2,0.2-2.2,0-2.4
		c-0.1-0.1-0.4-0.9-0.4-0.9c0-0.3,0-0.6-0.1-0.8c0,0.2-0.1,0-0.1,0c0,0.1,0,0.2-0.1,0.2c-0.3,0-0.2-0.4-0.2-0.6
		c0-0.3-0.2-0.5-0.2-0.8l-0.3-0.2c-0.3,0-0.3-0.2-0.6-0.3c0,0,0,0-0.1,0c-0.1-0.3-1.1-0.6-1.4-0.8c-0.5-0.2-0.9-0.3-1.2-0.4
		c-0.3-0.1-0.8-0.1-1.1-0.1c0,0,0,0.2,0,0c0,0-0.2,0-0.3,0c0,0.2,0.2,0,0.1,0.2c-0.1,0-0.1,0-0.3,0c-0.1,0.2-0.6,0.1-0.8,0.3
		c-0.2,0-0.4,0.3-0.6,0c-0.5,0.6-0.6,1.3-0.6,2s0.2,1.4,0.6,2c0.5,0.6,1,1.4,1.7,1.8c0.2,0.1,0.6,0.3,0.9,0.4
		c0.2,0.1,0.6,0.1,0.6,0.4c-0.3,1.5-1.3,2.6-2.1,3.9c-0.9,1.4-2,3.1-3.7,3.7c0-0.2,0.1-0.2,0.1-0.4c-0.6-0.9-0.8-2.1-0.8-3.2
		c0-0.3-0.1-0.5-0.1-0.7c0-0.3,0.1-0.4,0.1-0.7c0-0.3,0-0.7,0-1c0-0.1,0-0.1,0.2-0.2l-0.1-0.1c0-0.2,0.1-0.3,0.1-0.4
		c0.1-0.3,0.1-0.4,0.2-0.6c0-0.2,0.1-0.5,0.1-0.7c0.1-0.2,0.2-0.4,0.2-0.6c-0.1-0.2,0-0.3,0.1-0.4c0-0.2,0.3-0.5,0.3-0.6
		c0-0.4,0-0.8,0.2-1.1c0-0.2,0.1-0.3,0.1-0.4s0-0.1,0-0.3c0.1-0.1,0.2-0.1,0.3-0.1c0-0.1,0-0.3,0-0.3c0.1-0.6,0.2-1.2,0.4-1.7
		c0.2-0.4,0.2-0.7,0.2-1c0-0.5,0.3-0.3,0.3-0.8c0.3-0.4,0.5-0.7,1.2-1.2c0.5-0.3,0.7-0.9,1.1-1.1c0-0.1,0.5-0.2,0.5-0.2
		c0.4-0.4,0.9-1,1.4-1.4c0.3-0.1,0.8-0.5,0.9-0.8c0.1-0.2,0.6-0.3,0.5-0.6c0.1,0,0.1,0,0.1,0c0.1-0.3,0.4-0.3,0.5-0.5
		c0.2-0.2,0.2-0.4,0.6-0.4c0,0-0.2,0-0.1,0.1s0.7-0.6,0.9-0.6c0-0.1,0.4-0.5,0.4-0.5c0.1-0.1,0.3-0.4,0.3-0.5
		c0.1-0.2,0.3-0.4,0.5-0.5c0.1-0.2,0.5-0.3,0.6-0.5c0.2-0.2,0.3-0.4,0.6-0.4c-0.1,0.2-0.6,0.7-0.7,0.9c-0.3,0.1-0.3,0.4-0.4,0.4
		c-0.2,0.2-0.2,0.4-0.4,0.6c0.3-0.2,0.4-0.5,0.7-0.7c0.3-0.2,0.6-0.5,0.8-0.8c0.3-0.4,0.5-0.7,0.8-0.9c0.6-0.7,1.3-1.4,1.7-2.2
		c0.1-0.3,0.3-0.5,0.5-0.7c-0.2-0.1-0.1-0.2,0-0.3c0.2-0.1,0.3-0.7,0.5-0.7c0-0.1,0.1-0.1,0.1-0.2v0.4c0.2-0.4,0.4-0.9,0.6-1.4
		c0.1-0.1,0.1-0.3,0.3-0.5c0-0.1-0.1-0.5,0-0.5c0.3-0.1,0.3-0.9,0.4-1.1c0.1-0.3,0.5-1.2,0.2-1.4c0-0.4-0.2-0.6-0.4-1
		c-0.3,0-0.4-0.2-0.5-0.3c-0.1,0-0.3,0.1-0.2-0.1c-0.3,0-0.5,0-0.8-0.2c-0.1-0.1-0.4-0.1-0.5-0.2c0,0,0,0,0-0.1
		c-0.2,0.1-0.2-0.3-0.4-0.2c-0.1,0-0.1-0.1-0.1-0.1c-0.1,0-0.6,0.1-0.6-0.2c-0.4-0.1-0.8-0.1-1.2,0c-0.3,0-0.6,0.2-0.9,0.3
		c-0.1,0.1-0.1,0.3-0.2,0.3s-0.2,0-0.2,0c-0.3,0-0.4,0.4-0.8,0.3c0,0-0.2,0-0.2,0.1c-0.3,0.1-0.4,0-0.6,0c-0.1,0.2-0.3,0.3-0.2,0.5
		c-0.5,0.5-0.9,1-1.3,1.5c-0.4,0-0.6,0.6-0.8,0.8c-0.3,0.2-0.6,0.5-0.7,0.8c-0.1,0.2-0.5,0.3-0.6,0.5c0,0,0,0.1,0,0.2
		c0,0.2-0.3,0.3-0.4,0.3c0,0.2-0.1,0.3-0.3,0.3c-0.1,0.1-0.4,0.4-0.4,0.5c0,0.3-0.5,0.8-0.6,1.1c-0.8,1.1-1.5,2.1-2.1,3.2
		c-0.4,0.7-0.9,1.3-1.3,2c-0.4,0.6-0.8,1.4-1,2.1c-0.2,0.4-0.4,0.8-0.6,1.1c-0.2,0.4-0.3,0.7-0.4,1c0.3,0-0.4,1.2-0.4,1.3
		c-0.2,0.3-0.3,0.6-0.4,1.2h-0.1c0,0,0,0.2,0,0.3c-0.1,0-0.2,0.1-0.2,0.2c-0.2,0.3-0.3,0.5-0.4,0.7s0,0.5-0.2,0.7
		c0.1,0.2,0,0.4-0.2,0.5c0,0,0,0,0-0.1c0,0.1-0.3,0.3-0.3,0.6c0,0.3,0,0.5-0.3,0.6c-0.4,0.1-0.5,0.6-0.5,0.8c-0.2,0-0.3,0.9-0.5,0.9
		c-0.3,0.5-0.3,0.5-0.6,0.9c-0.5,0.5-0.3,0.7-0.9,1.3c-0.6,0.8-0.4,0.8-1.1,1.5c-0.6,0.6-1.6,1.4-1.8,1.7c0,0.3,0.3,0.3,0.6,0.4
		c0.2,0,0.7,0.1,1.2-0.1s0.4-0.1,0.8-0.3l0.5-0.3c0,0.4,0.1,1.4,0,1.8c0,0.1-0.2,0.6,0.1,0.5c0.1,0.5,0,1,0.1,1.5c0,0,0.3,0.9,0.2,1
		c0.1,0.4,0.3,0.9,0.4,1.2c0.2,0,0.4,0.4,0.2,0.6c0.2,0.1,0.6,0.6,0.6,0.9c0.1,0.3,0.5,0.5,0.5,0.8c-0.3-0.1-0.3-0.4-0.5-0.5
		c0,0.1,0,0.2-0.1,0.1c0,0.2,0.4,0.3,0.5,0.4h0.1c0.3,0,0.4,0.4,0.7,0.5c0.3,0.1,0.9,0.3,1.1,0.3c0.3,0.2,0.7,0,0.9,0.2
		c0.3,0,0.7,0.1,1.1,0.1c0.5,0,0.9-0.1,1.3-0.3c0.3,0,0.6-0.2,0.9-0.2s0.8-0.4,1-0.5c0.4-0.2,0.8-0.4,1.2-0.8c0.4-0.4,1-0.9,1.4-1.3
		c0-0.5,0.8-0.9,1.1-1.2c0.5-0.4,0.9-1.1,1.2-1.5c0.1-0.2,0.2-0.3,0.2-0.5c0.1-0.4,0,0,0.2-0.3c0.1-0.2,0-0.3,0.2-0.4
		c0.4-0.3,0.7-1.5,0.9-1.5c0.7,0.2,2.2,0.7,2.3,0.5c0.3,0,0.6,0.2,1,0.2s0.6-0.1,1.1-0.1c0.4,0,1.6-0.2,1.9-0.5
		c0.1,0,0.2-0.1,0.3-0.1c-0.1,0.3-0.2,0.6-0.1,0.9c0,0.1,0.1,0.4,0.3,0.5c0.1,0,0.3,0,0.4,0c0.5,0.3,0.8,1.5,1.4,1.7
		c0.1,0,1.4,0.6,1.5,0.6c0.5,0.2,1,0.1,1.5,0.3c0.2,0,0.3,0,0.5,0.1c0.5,0.1,1,0.1,1.3,0c0.7,0,1.4-0.2,2-0.4c0.3,0,0.7,0,1-0.2
		c0.5-0.1,0.9-0.4,1.2-0.3c0.3-0.4,0.6-0.3,1-0.6c0.3-0.3,0.9-0.5,1.3-0.6c0.6-0.4,0.5-0.6,1.1-0.9c0.2-0.1,0.8-0.6,0.9-0.6
		c0.1,0,0.5-0.6,0.7-0.6c0-0.1,0.5-0.4,0.6-0.5c0-0.1,0.1-0.1,0.2-0.2c0.5-0.3,0.8-0.5,1.3-1c0.4-0.4,0.8-0.4,1-1.1
		c0-0.1,0.8-0.6,0.9-0.7c0.6-0.8,0.4-0.5,1-1.4c0.3-0.2,0.3,0.3,0.8,0.3c0.3,0.3,0.8,0.3,0.9,0.7c-0.8,1.7-1.6,4.9-1.6,7.7
		c0,0.9,0,1.7,0.3,2.4c0,0.3,0.2,0.5,0.3,0.8c0.1,0.2,0.3,1,0.5,1.2c0.6,1,2.2,1.6,3.8,1.4c0.5-0.1,1.1-0.4,1.5-0.8
		c-0.6,0-1.1,0.3-1.7,0.2C155.2,39.1,155.4,39.1,155.2,38.9z M137.9,24.3c0,0,0-0.1,0.3,0c0,0,0.1,0.3,0,0.6
		c-0.1,0.3-0.6,0.7-0.9,0.9c-0.9,0.6-1.8,1.5-2.7,2c0,0-0.2,0.1-0.2-0.1C135.4,26.5,136.5,25,137.9,24.3z M117,15.9
		c0-0.3,0.3-0.6,0.4-0.8c0-0.1,0.1-0.3,0.3-0.3c0.1-0.3,0.1-0.6,0.2-0.9c0.2-0.5,0.4-0.8,0.6-1.3c0.4-0.7,0.8-1.4,1-2s0.5-1.1,1-1.5
		c0.2-0.2,0.2-0.5,0.4-0.7c0.1-0.3,0.3-0.5,0.5-0.8c0-0.1,0.7-1,0.6-1c0.6-0.4,0.8-0.9,1.2-1.4c0.3-0.2,0.6-0.6,0.9-0.9
		c0.3-0.3,0.9-0.8,1.4-1c0.4-0.3,1-0.6,1.5-0.8c0.3,0.6,0.7,0.6,0.7,1.4c-0.1,0.3-0.2,0.9-0.5,1.2c0,0.2-0.3,0.2-0.3,0.3
		c-0.1,0.1-0.2,0.3-0.2,0.3c-0.1,0.3-0.3,0.6-0.5,0.8c-0.8,1.5-1.7,2.6-2.7,3.9c-1.9,2.2-3.6,4.3-5.8,6.3c-0.3,0.2-1.2,0.9-1.5,1
		C116.4,17.3,116.7,16.4,117,15.9C117.2,15.8,117,15.9,117,15.9z M119.8,27.7c-0.6,0.6-3.1-2.4-1.6-3.5c0.3-0.2,1.2,0.4,1.3,0.6
		C119.9,25.3,120.4,26.6,119.8,27.7z M152.2,20c-0.3,0.9-0.9,1.7-1.4,2.8c-0.3-1.4,1-2.1,1.2-3.2c0.1-0.1,0.3,0,0.3-0.2
		C152.5,19.5,152.3,19.8,152.2,20z"/>
	<path class="st0" d="M164.3,20.8c0.5,0.6,0.6,0.8,1.2,0.9c0.2,0,0.3,0.1,0.6,0.1c0.3-0.5,0.7-1.1,0.7-1.8c-1.3-0.4-3.1-1.3-3.1,0.3
		C163.7,20.3,164,20.5,164.3,20.8z"/>
	<path class="st0" d="M185.4,22c-0.5-0.1-0.9,0.1-1.4,0c-0.3,0-0.6-0.2-0.8-0.1c-0.3,0.1-0.4,0.4-0.7,0.7c-0.2,0.1-0.3,0.1-0.5,0.2
		c0,0,0,0.2,0,0.3c-0.2,0.1-0.5,0.2-0.6,0.5c-0.2,0.1-0.4,0.1-0.5,0.2c-1,0.9-1.9,1.9-2.6,2.6c0,0.1,0,0.2-0.1,0.2H178
		c0,0.1,0,0.2,0,0.2c-0.2,0.2-0.3,0.2-0.5,0.3c-0.1,0.1-0.1,0.4-0.3,0.3c0.3-1.1,0.3-2.4,0.5-3.5c0.3-0.5,0.3-0.9,0.3-1.2l-0.1-0.3
		c-0.2-0.3-2.2-0.8-2.7-0.6c-0.4,0.1-0.1,0.6-0.1,1c-0.2,0-0.3,0.1-0.4,0.2c-0.4,1.4-0.6,2.6-1,3.8c-0.1,0.4-0.2,0.8-0.3,1.3
		c-0.2,0.1-0.4,0.2-0.5,0.3c-0.3,0.3-0.7,0.4-0.9,0.5c0,0,0,0.3-0.1,0.3c-0.5,0.3-0.9,0.6-1.2,0.6c-0.3,0.2-0.6,0.3-0.8,0.4
		c-0.3,0.3-0.6,0.5-1.1,0.7c-1,0.6-2.6,1.3-3.4,1.9c-0.9,0.6-1.9,0.8-3.1,1c-0.2-0.9,0.6-1.9,0.8-2.6c0.1-0.1,0.1-0.3,0.1-0.6
		c0.1-0.3,0.4-0.5,0.5-0.9c0.1-0.1,0.2-0.4,0.2-0.5c0-0.2,0-0.3,0.2-0.5c0.3-0.8,0.3-1.6,0.5-2.2c0.3-0.4,0.6-0.7,0.6-1.2
		c-0.7-0.6-2.1-1.4-3.2-0.8c-0.6,0.7-1.2,2-1.4,2.8c0,0.3-0.3,0.4-0.2,0.5c-0.3,0.6-0.3,1.2-0.5,1.8c-0.2,0.8-0.4,1.5-0.4,2.2
		c0,1,0.3,2,0.8,2.5c0.4,0.4,1.1,0.7,1.9,1c0.8,0.3,1.4,0.5,2,0.5s1.1-0.1,1.8-0.3c0.4-0.2,0.4-0.3,0.6-0.3c0.4-0.1,0.7-0.2,0.9-0.2
		c0,0,0.3-0.3,0.4-0.5c0.2-0.1,0.3-0.2,0.5-0.2c0.7-0.4,1.2-0.7,1.6-1c0.6-0.4,1-0.6,1.5-1c0.5-0.4,1-0.7,1.4-1.1
		c0,0.3-0.1,0.7-0.1,1c0,0.8,0.2,1.5,0.6,2c0.6,0.1,1.2,0.1,1.5,0.4c-0.3-0.6,0.6-0.3,0.6-0.6c0.1-0.3,0.6-0.4,0.8-0.6
		c0.1-0.2,0.3-0.5,0.5-0.8c0.1-0.3,0.3-0.4,0.4-0.5c0.1-0.2,0.3-0.5,0.4-0.8c0.4-0.3,0.6-0.8,1-1.2c0.4-0.6,0.7-1.1,1.2-1.6
		c0-0.2,0.2-0.2,0.3-0.3c0.2-0.3,0.2-0.5,0.3-0.6c0.2-0.3,0.5-0.4,0.6-0.8c0.1,0.8-0.4,1.6-0.6,2.5c-0.4,1.5-0.5,3.1-0.4,4.7
		c0,0.4,0,0.8,0.1,1.1c0.2,0.7,0.7,1.2,0.6,1.7c0.3,0.3,0.8,1,1.5,1.4c0.6,0.3,1.6,0.7,2.3,0.6c0.1-0.1,0.1-0.2,0.3-0.3
		c0,0,0.3,0,0.4,0c0.3-0.2,0.3-0.6,0.3-0.9c-0.9,0.3-1.7-0.6-1.9-1c-0.3-0.6-0.2-1.2,0-1.7c0-0.3,0-0.5,0-0.8
		c0.2-0.9,0.5-1.6,0.8-2.5c0.1-0.4,0.3-0.8,0.4-1.2c0.3-0.9,0.4-1.8,0.6-2.6c0.1-0.3,0.3-0.8,0.5-1.1c0.1-0.6,0.2-1.2,0.2-1.9
		s0-1.4-0.1-2C185.6,22.4,185.6,22.1,185.4,22z"/>
	<path class="st0" d="M214.1,29.1c-0.6,0.4-0.6,0.4-1.4,0.9c-0.7,0.4-1.5,0.5-2,1.1c0,0-1.4,0.6-1.6,0.8c-0.3,0.2-2.6,1.5-2.9,1.6
		c-0.2,0.2,0.3-0.4,0-0.5c-0.2-0.7,0.2-1.7,0.1-2.3c0-0.6,0.1-0.6,0.2-1.2c0-0.4,0.2-0.8,0.2-1.3c0-0.2-0.2-0.4-0.1-0.6
		c-0.9-0.6-1.7-1.1-2.9-1.4c-0.3-0.8-0.9-1.5-1.4-1.8c-0.3,0-0.4-0.2-0.7-0.5c-1-0.5-2.2-0.7-3.5-1c-0.3,0-0.3,0.3-0.4,0.3
		c0,0-0.3,0-0.4,0.1c-0.3,0.1-0.4,0.4-0.8,0.7c-0.1,0-0.3,0-0.5,0.1c-0.6,0.3-1.2,0.6-1.7,1c-0.6,0.3-1.1,0.7-1.5,1
		c-0.3,0.2-0.8,0.7-1.1,0.9c0,0-0.3,0.1-0.3,0.3c-0.1-0.1,0,0,0,0.1c-0.1,0-0.2,0-0.2,0c-0.4,0.5-0.6,0.6-0.8,0.9
		c-0.2,0.2-0.3,0.3-0.4,0.4c-1.1,0.6-3,2.3-3.3,3.4c-0.1,0.5,0.1,1.3,0.2,1.4c0.3,0.4,0.5,0.8,0.7,1.1c0.1,0.2,0.3,0.5,0.3,0.6
		c0.7,0.7,1.4,0.7,2.3,0.6c0.1-0.1,1.1-0.4,1.2-0.5c0.1,0,0.1,0,0.3-0.1c0-0.2,0.3-0.3,0.5-0.3c0.2-0.1,0.3-0.1,0.5-0.2
		c0.1-0.1,0.3-0.4,0.6-0.5c0,0,0.1,0.1,0.2,0c0.1-0.1,0.3-0.3,0.5-0.3c0.8-0.5,1.8-1,2.7-1.5c1.8-1,3.8-2.2,5.3-2.9
		c0.3,0.4,1.1,0.5,1.4,1c-0.4,2.1-0.6,2.6-1,5.1c-1.8,2-3.8,4.6-4.6,7.6c-0.3,0.6-0.7,1.1-0.9,1.5c-0.1,0.1-0.1,0.4-0.3,0.6
		c-0.1,0.3-0.4,0.7-0.4,1c0,0.1-0.2,0.2-0.2,0.3c-0.2,0.3-0.2,0.4-0.3,0.7c-0.4,1.3-1,2.6-1.5,4.1c-0.3,1-0.4,2-0.6,3.2
		c-0.1,0.6-0.3,1.1-0.4,1.5c0,0.3,0.1,0.3,0.1,0.5c0.2,0.7,0,1.3-0.1,1.7c0.9,0,2,0.4,2.9,0.8c0.4,0.1,0.2-0.3,0.4-0.3
		c0.1-0.1,0.5,0.1,0.6,0c0.2,0,0.6-0.4,1-0.7c0.1-0.1,0.2,0,0.3,0c0.4-0.1,0.8-0.6,0.9-0.6c0.2-0.3,0.3-0.5,0.3-0.7
		c0.2-0.3,0.4-0.4,0.4-0.6c0.2-0.1,0.3-0.3,0.4-0.7c0-0.1,0.1-0.2,0.1-0.2c0.1-0.2,0.1-0.3,0.3-0.4c0-0.1,0.1-0.2,0.2-0.3
		c0.1-0.2,0.1-0.2,0.1-0.3c0.4-0.8,0.8-1.5,1.1-2.3c0.3-1,0.8-2,1.2-3.1c0.2-0.4,0.3-0.9,0.4-1.3c0.3-0.6,0.3-1.2,0.6-1.7
		c0.3-0.8,0.5-1.6,0.7-2.3c0.3-0.7,0.9-4.3,1.3-5c0.5-0.8-0.6,1,1-1.6c0.1-0.3,0.3-0.6,0.4-0.7c0.4-0.3,1-0.9,1-0.9
		c0.1-0.2,0.8-0.8,0.9-0.9c0.4-0.3,0.6-0.5,1.2-0.8c0.8-0.6,1.2-0.8,1.2-0.9c0.4-0.4,1-0.7,1.5-1.2c0.3-0.3,0.3-0.3,0.9-0.6
		c0.4-0.3,0.7-0.5,1.1-0.8c0.3-0.3,1.4-0.7,0.8-1.6C215.7,28.4,214.5,28.9,214.1,29.1z M200.6,28.1c-2.7,1-5.3,2.2-8,3.2
		c-0.9,0.3-1.7,1-2.8,1c0.3-0.6,0.5-1.2,1.1-1.7c0.3-0.5,0.7-0.9,1.3-1.5c0.5-0.4,0.8-1,1.2-1.4c0.3-0.1,0.5-0.3,0.6-0.5
		c0.2-0.1,0.4-0.1,0.6-0.3c0.1-0.1,0.1-0.3,0.2-0.3c0.2,0,0.5-0.3,0.8-0.3c0.3-0.2,0.5-0.4,0.8-0.5c0.1-0.1,0.2-0.2,0.3-0.3
		c0.2-0.2,0.3-0.1,0.5-0.3c0.2,0,0.3-0.1,0.4-0.2c0,0,0.6-0.3,0.9-0.3c0.1,0,0.5,0.3,1.1,0.1c-0.1,0.4,0.3,0.5,0.5,0.9
		c0,0.1,0,0.2,0.1,0.3c0.1,0.2,0.3,0.4,0.4,0.6c0.1,0.2,0,0.3,0,0.3C200.5,27.3,200.7,27.6,200.6,28.1z M197.9,52.1
		c-0.2,0.5-0.3,1.2-0.9,1.3c0-0.6,0.2-1.3,0.4-1.7c0.2-0.6,0.4-1.2,0.6-1.9c0.1-0.1,0.4-0.3,0.6-0.5c0-0.2,0-0.3,0-0.5
		c0.3-0.4,0.8-1.1,1-1.8C199.6,48.8,198.9,50.7,197.9,52.1z"/>
	<path class="st0" d="M261.7,11.6c-1.3-0.6-2.7-1.2-4-1.6c-1.4-0.5-2.6-0.7-4.1-0.9c-1.4,0-2.4-0.5-3.9-0.6c-0.3,0-1.1-0.2-1.4-0.3
		c0-1-0.2-1.1-1.1-1.3c-0.5-0.6-1.2-0.5-1.7-0.7c-0.9-0.4-0.7,0.8-1,1.4c-0.2,0.4-0.3,0.4-0.3,0.9h-0.8c-0.2,0.1-0.4,0.1-0.7,0
		c-0.6,0-1.1,0.1-1.7,0.1c-0.5-0.1-1.1-0.4-1.6-0.3c-1.2,0.2-2.3,0.1-3.5,0.2c-1.1,0.2-2.1,0.4-3.2,0.5c-0.4,0-0.8-0.2-1.1-0.5
		c-0.2-0.4-0.7-0.4-1,0c-0.4,0.3-0.2,0.8,0,1.2l0.5,1.3c1.1,1.6,2.4,3.2,4.3,3.8c0.7,0.3,1.4,0.4,2,0.4c0.9,0,1.9-0.2,2.9-0.1
		c0,0,0,0,0.1,0c0.5-0.3,1.1-0.4,1.6-0.6c0.2,0.2,0,0.5-0.2,1.1c-0.3,0.7-0.6,3.8-0.8,4.6l-0.1,1.9c-0.3,1.3-0.4,2.6-0.4,3.9
		c0,0.8-0.2,1.2-0.4,2c-0.2,0.7-0.5,4.1-0.3,4.6c0.1,0.6-0.1,1.2,0,1.7c0,0.4,0.1,1.1,0.3,1.5c0.2,0.3-0.1,0.8,0.1,1.2
		c0.2,0.4,0,0.8,0.1,1.3c0.2,0.6,0.6,1.8,1.1,2c0.3,0.2,0.5,0,0.8-0.2c0.3-0.4,0.4-0.2,0.5-0.9c0.1-0.5,0.6-1,0.6-1.7
		c0.2-0.5,0.3-1.2,0.4-1.8c0.1-0.5,0.5-1.1,0.5-1.7c0-0.3,0.3-1.5,0.1-1.5c0,0,0,0.3-0.1,0.3c-0.2,0.2-0.1,0.8-0.4,1
		c0.1-0.7-0.1-1.8,0.4-2.4c0.1,0.2-0.1,0.5,0.1,0.6c0.2-1,0.6-2,0.8-3.1c0.1-1.1,0.3-2.2,0.5-3.3c0.2-1.2,0.3-2.3,0.6-3.4
		c0.3-0.9,0.6-1.7,0.6-2.7c0.6-0.2,0.9-2,0.9-2.6c0.1-0.2,0.3-1.2-0.1-1c-0.1,0-0.2,0.5-0.4,0.5c0.1-0.8,0.3-1.5,0.6-2.3
		c0-0.2,0.2-0.5,0.3-0.8h0.1c0.8-0.2,1.6-0.1,2.4-0.3c0.6,0,1.2-0.3,1.8-0.5c1.5-0.3,2.8-0.8,4.4-0.9
		C257.5,11.8,261.7,12.4,261.7,11.6z"/>
	<path class="st0" d="M246,26.1c0,0.6-0.5,1.7-0.2,2.1c0.3-0.9,0.3-1.6,0.4-2.6c0.1-0.4,0.5-1.5,0.3-2
		C246.1,24.4,246.1,25.4,246,26.1z"/>
	<path class="st0" d="M260.6,20.2c0,0.1,0.3,0.3,0.6,0.6c0.5,0.6,0.6,0.8,1.2,0.9c0.2,0,0.3,0.1,0.6,0.1c0.3-0.5,0.7-1.1,0.7-1.8
		C262.4,19.5,260.6,18.6,260.6,20.2z"/>
	<path class="st0" d="M292.1,35.6c0,0.4-0.2,0.5-0.3,0.5c-0.8,0.3-1.3-0.3-1.4-0.9c-0.2-0.5-0.3-1-0.3-1.7c0-0.6,0.1-1.4,0.3-2
		c0.3-0.6,0.3-1.5,0.4-2.3c0.2-0.3,0.3-0.6,0.5-1c0.3-0.9,0.7-2.1,0.8-2.9c0.2-1.4-0.3-1.8-1.3-2.2c-0.1,0-0.2,0-0.3,0
		c-0.3,0-0.5-0.2-0.7-0.1c-0.1,0-0.3,0.1-0.5,0.2c-0.1-0.1,0-0.1-0.2-0.1c-0.1,0-0.3,0.1-0.5,0.2c-0.4,0-0.6,0-0.8,0.2
		c-0.5,0.4-1,0.9-1.5,1.4c-0.6,0.6-1,1.2-1.5,1.7c0.1-0.6,0.2-1.1,0.4-1.7c0.1-0.6,0.6-1.6,0.1-2.2c-0.3-0.4-0.4-0.3-0.9-0.4
		c-0.3,0-0.4-0.2-0.6-0.3c-0.6-0.2-1.1,0-1.8,0.3c-1.9,0.7-3.8,2.2-5.1,3.8c0,0.1-0.2,0.2-0.3,0.3c-0.6,0.7-0.1,0.3-0.9,0.9
		c0.5-1.7,0.7-2.1,1.2-3.8c0-0.3,0.1-0.7,0.2-0.9c-0.1-0.2-0.5-0.4-0.9-0.6c-0.4-0.1-0.9-0.5-1.1-0.2c0-0.2-0.3-0.3-0.5-0.4
		c0,0-0.1,0.1-0.2,0c-0.1,0-0.1-0.2-0.3-0.1c0-0.1,0,0-0.2,0.1c-0.3,0-0.4,0.2-0.6,0.3c-0.1,0-0.3,0-0.3,0s0,0,0,0.1
		c-0.2,0-0.3-0.1-0.3,0c-0.2,0.4-0.2,0.9-0.5,1.2c-0.1,0.3-1,2.5-1.7,4.7c-0.4,0.2-0.8,0.4-0.9,0.5c-0.3,0.3-0.7,0.4-0.9,0.5
		c0,0,0,0.3-0.1,0.3c-0.5,0.3-0.9,0.6-1.2,0.6c-0.3,0.2-0.6,0.3-0.8,0.4c-0.3,0.3-0.6,0.5-1.1,0.7c-1,0.6-2.6,1.3-3.4,1.9
		c-0.9,0.6-1.9,0.8-3.1,1c-0.2-0.9,0.6-1.9,0.8-2.6c0.1-0.1,0.1-0.3,0.1-0.6c0.1-0.3,0.4-0.5,0.5-0.9c0.1-0.1,0.2-0.4,0.2-0.5
		c0-0.2,0-0.3,0.2-0.5c0.3-0.8,0.3-1.6,0.5-2.2c0.3-0.4,0.6-0.7,0.6-1.2c-0.7-0.6-2.1-1.4-3.2-0.8c-0.6,0.7-1.2,2-1.4,2.8
		c0,0.3-0.3,0.4-0.2,0.5c-0.3,0.6-0.3,1.2-0.5,1.8c-0.2,0.8-0.4,1.5-0.4,2.2c0,1,0.3,2,0.8,2.5c0.4,0.4,1.1,0.7,1.9,1s1.4,0.5,2,0.5
		s1.1-0.1,1.8-0.3c0.4-0.2,0.4-0.3,0.6-0.3c0.4-0.1,0.7-0.2,0.9-0.2c0,0,0.3-0.3,0.4-0.5c0.2-0.1,0.3-0.2,0.5-0.2
		c0.7-0.4,1.2-0.7,1.6-1c0.6-0.4,1-0.6,1.5-1c0.5-0.4,1-0.7,1.4-1.1c-0.2,0.9-0.3,1.5-0.2,1.7c0.1,0.1-0.1,0.3-0.1,0.6
		c0.1,0.1,0.3,0.3,0.6,0.6c0.4,0.2,0.6,0.4,1.2,0.3c0,0.1,0.3,0.2,0.3,0.2c0-0.1,0.1-0.2,0.3-0.2c0.2-0.2,0.3,0.2,0.3,0.1
		c0.1,0,0.2,0,0.2,0c0.1,0,0.6-0.3,0.7-0.2c0.3-0.5,0.3-0.6,0.6-0.7c0.2-0.1,0.8-1,0.9-1.2c0.7-1,0.9-1,1.7-2.2
		c0.7-0.6,1.4-1.4,2-2.2c0-0.2,0.6-0.5,0.8-0.6c0.1,0,0.3-0.2,0.4-0.5c0-0.1,0.1-0.3,0.2-0.3c0,0,0.1-0.1,0.2-0.2
		c0.5-0.3,0.9-0.9,1.3-1.3h0.2c0-0.1,0-0.1,0-0.2c0,0,0.2,0,0.3,0c0.1,0,0-0.1,0.1-0.3c0.4,0.2,0.3-0.3,0.7-0.2
		c-0.4,1-0.7,2-1.2,3.1c-0.4,1-0.9,2-1.2,2.9c-0.2,0.4-0.4,1-0.4,1.4c-0.1,0.5,0.2,0.7,0.2,1.2c0,0,0.3,0.1,0.3,0.3
		c0.3,0.3,0.8,0.9,1,1c0.2,0,0.5-0.3,0.8-0.1c0.2,0,0.4,0,0.4-0.3c1.6-0.9,2.6-2.8,3.8-4.2c0,0.5-0.2,0.9-0.3,1.4c0,0.4,0,0.9,0,1.3
		c0,0.8,0,1.4,0.2,2.1c0,0.1,0.2,0.3,0.2,0.4c0,0.1,0,0.3,0,0.3s0.3,0.2,0.3,0.3c-0.1,0.5,0,0.6,0.5,1c0.4,0.7,0.8,1,1.5,1.2
		c0.3,0.1,0.6,0.4,0.8,0.4c0.1,0.1,0.3,0,0.5,0c0.4,0.2,0.8,0.3,1.1,0.2c0.1,0,0.1,0,0.1-0.1c0.2-0.2,0.5-0.2,0.7-0.2
		c0-0.2-0.1,0-0.1-0.3c0,0,0.4,0,0.6-0.2c0.1-0.1,0.1-0.3,0.1-0.4c0,0,0,0,0.1-0.1s0.4-0.3,0.4-0.3c0.2-0.2,0-0.6-0.1-0.7
		C292.5,35.5,292.3,35.9,292.1,35.6z"/>
	<path class="st0" d="M331.2,36c0.1-0.1,0.3-0.1,0.2-0.2C331.4,35.9,331.1,36,331.2,36z"/>
	<path class="st0" d="M331.9,14.9c0,0,0.2,0,0.1-0.2C332,14.8,331.7,14.8,331.9,14.9z"/>
	<path class="st0" d="M325.5,38.4c0.1,0,0.1,0,0.2,0C325.6,38.3,325.6,38.3,325.5,38.4z"/>
	<path class="st0" d="M331.6,35.8c0,0,0.3-0.2,0.3-0.3C331.7,35.6,331.6,35.6,331.6,35.8z"/>
	<path class="st0" d="M328.7,37.4c0.2,0,0.3-0.2,0.4-0.2C328.9,37.1,328.8,37.3,328.7,37.4z"/>
	<path class="st0" d="M330.8,36.3c0.1,0,0.2-0.2,0.1-0.2C330.9,36.2,330.8,36.1,330.8,36.3z"/>
	<path class="st0" d="M333.7,11.6c0-0.1,0-0.2,0-0.1C333.7,11.6,333.7,11.7,333.7,11.6z"/>
	<path class="st0" d="M334.3,33.7c0,0,0.2-0.1,0.2-0.3C334.4,33.5,334.1,33.6,334.3,33.7z"/>
	<path class="st0" d="M333.7,34c0.2,0.1,0.3,0,0.2,0C333.9,34,333.7,34,333.7,34z"/>
	<path class="st0" d="M334.2,33.8c-0.2,0-0.2,0.1-0.3,0.1C334.1,34,334.1,33.9,334.2,33.8z"/>
	<path class="st0" d="M333.1,9L333.1,9C333.1,9.1,333.1,9.1,333.1,9C333.1,9.1,333.1,9,333.1,9z"/>
	<path class="st0" d="M324.2,38.8c-0.4,0.4-1,0.1-1,0.6c0-0.2,0.3-0.2,0.6-0.3c0.1,0,0.2-0.1,0.3-0.1c0.1,0,0.2,0,0.2-0.1
		C324.3,38.8,324.1,38.9,324.2,38.8z"/>
	<path class="st0" d="M323.6,38.5c0,0-0.1,0-0.1,0.3C323.6,38.8,323.7,38.6,323.6,38.5z"/>
	<path class="st0" d="M333.1,9c0-0.1,0-0.1-0.1-0.1C333.1,9,333.1,9,333.1,9z"/>
	<path class="st0" d="M324.3,39.3c0.3,0,0.4-0.1,0.5-0.3C324.7,39,324.4,39,324.3,39.3z"/>
	<path class="st0" d="M314.6,31.1c0,0,0.1-0.3,0-0.3C314.5,31,314.5,31.1,314.6,31.1z"/>
	<path class="st0" d="M322.9,38.9c-0.1,0-0.3,0-0.5,0c-0.1,0-0.2,0.2-0.4,0.3c0,0-0.1,0-0.2,0c0,0-0.1,0.2-0.2,0.2s-0.2,0-0.3,0
		c-0.4,0.2-0.9,0.5-1.4,0.5h-0.1c-0.3,0-0.6,0.1-0.9,0.3c0.5,0.1,0.9-0.1,1-0.2c0.3,0,0.4,0,0.6-0.1c0.3-0.1,0.4-0.2,0.7-0.3
		c0.1,0,0.2,0,0.3,0c0.1-0.1,0.3-0.3,0.6-0.3c0.3-0.1,0.6-0.3,0.9-0.5C322.9,38.7,323,38.9,322.9,38.9z"/>
	<path class="st0" d="M315,29.5C315,29.5,314.9,29.3,315,29.5C314.9,29.5,314.9,29.6,315,29.5z"/>
	<path class="st0" d="M314.9,29.3c0-0.3,0-0.4,0-0.6C314.9,29,314.9,29.1,314.9,29.3z"/>
	<path class="st0" d="M339,22.6c-0.1-0.1-0.1-0.3-0.2-0.5c-0.1-0.3-0.3-0.6-0.4-0.8c-0.3-0.1-0.3-0.4-0.4-0.5
		c-0.2-0.1-0.5-0.3-0.6-0.4c-0.3-0.1-0.3-0.5-0.6-0.5c-0.1-0.3-0.4-0.3-0.5-0.5c-0.3-0.3-0.6-0.3-1-0.5c0-0.1,0,0-0.1-0.2
		c-0.3,0-0.2,0-0.3,0h-0.1c-0.5-0.4-1.2-0.6-1.8-0.7c-1.4-0.3-2.7-0.4-4.1-0.7c0.5-0.3,0.8-0.9,1.2-1.1c0.2-0.2,0.3-0.4,0.6-0.5
		c0.1-0.1,0.1-0.2,0.4-0.2c0-0.2,0.5-0.7,0.6-0.6c0-0.2,0.2-0.1,0.3-0.3c0.1,0,0-0.1,0.1-0.1c0.1-0.1,0.2-0.3,0.3-0.4
		c0.2-0.2,0.3-0.6,0.5-0.7c0.2-0.3,0.3-0.6,0.3-0.8c-0.2,0.2-0.1,0.4-0.4,0.4c0-0.2,0.1-0.1,0.3-0.3c0.1-0.1,0-0.3,0.1-0.4
		c0.2-0.1,0.3-0.2,0.5-0.4c-0.1,0,0.1-0.1,0.1-0.3c0.1-0.1,0.1-0.3,0.2-0.4c0-0.2,0-0.4,0-0.7c0-0.1-0.2-0.3-0.1-0.3
		c-0.1-0.1,0.1-0.9-0.1-0.5c0.2-0.4-0.1-0.5-0.2-0.7c-0.1,0,0,0.3-0.1,0.3c-0.1-0.1,0-0.3-0.1-0.4c-0.2-0.2-0.1-0.3-0.2-0.3
		c0,0-0.2,0,0-0.1C333,8.4,333,8.6,333,8.4c0-0.3-0.1-0.2-0.3-0.3V7.9c0,0-0.1,0-0.2,0s-0.1-0.1-0.2-0.2h-0.1c0,0-0.1-0.1-0.1-0.2
		c-0.1-0.2-0.3-0.2-0.6-0.3c0,0,0-0.1-0.1-0.1c-0.1-0.1-0.3-0.2-0.4-0.2c-0.6-0.3-1.6-0.7-2.5-1c-0.5-0.1-1.2-0.3-1.8-0.3
		c-0.2,0-0.4,0.1-0.6,0c-0.1,0,0-0.2-0.2-0.2c0.1,0,0,0.2,0,0.2s0,0,0-0.1c-0.1,0-0.2,0.1-0.2,0.1c-1-0.2-2-0.1-2.8,0
		c-0.5,0-1,0.2-1.5,0.1c-0.1,0-0.3,0-0.5,0c-0.1,0-0.3,0.1-0.6,0.2c-0.5,0.2-1,0.2-1.5,0.3c-0.2,0-0.5,0.2-0.7,0.2
		c-1.3,0.3-2.3,0.6-3.4,1.1c-0.4,0.2-0.9,0.3-1.2,0.6c-0.5,0.1-0.7,0.4-1.2,0.5c-0.3,0.2-0.4,0.4-0.7,0.6c0,0.1-0.3,0.1-0.3,0.2
		c-0.2,0.2-0.4,0.2-0.6,0.3c0.6,0.6,1.1,1.1,2.1,1.3c0.1,0,0.4,0.1,0.6,0.2c0.4,0,0.9-0.3,1.3-0.5c0.1,0,0.3,0,0.4-0.1
		c0.2,0.1,0.3,0,0.3-0.1c0.6-0.2,1.3-0.3,1.8-0.5c0.3,0,0.5-0.3,0.9-0.2c-0.7,1.2-1.4,2.4-2,3.8c-1,2.5-2.2,5.2-2.9,8.4
		c-0.2,0-0.3,0-0.4,0c0,0.3-0.6,0.3-0.8,0.5c0,0-0.2,0.2-0.3,0.3c-0.3,0.6-0.2,0.4,0.2,0.8c0.1,0.2,0.1,0.4,0.1,0.5
		c0.2,0.3,0.5,0.4,0.6,0.7c0,0.1,0,0.3-0.1,0.5c-0.1,0.6-0.1,1.4-0.1,2.1c0,0.6,0,1.2,0,1.6c0,0.2,0,0.4,0,0.7
		c0,0.3,0.2,0.6,0.2,0.8c0,0,0,0,0,0.1c-0.2,0.3,0.1,0.5,0.1,0.7c0.2,0.7,0.6,2.3,1.5,2.5c0.1,0.1,0.3,0,0.6,0.1
		c0-0.3,0.3-0.3,0.5-0.3c0.4-0.2,0.3-0.6,0.3-0.9c-0.1,0-0.3-0.1-0.3-0.2c0,0-0.1,0.2-0.3,0.2c-0.3-0.3-0.4-0.8-0.4-1.4
		c0-0.1-0.1-0.3,0-0.4c0,0-0.1,0-0.2,0c0,0,0.1-0.1,0-0.1c0-0.2-0.1-0.5,0-0.5c0.3,0,0,0.4,0.2,0.5c0.3-0.2,0.1-0.5,0.1-0.7
		c0-0.1-0.1-0.3,0-0.4s0.3-0.3,0.3-0.5c0.1-0.2,0-0.5,0.1-0.7c0.1-0.3,0.1-0.8,0.2-1.2c0.1-0.3,0.2-0.4,0-0.6c0.3,0,0.3-0.2,0.5-0.3
		c0,0.2-0.1,0.3-0.1,0.3c0.1,0.1,0.1,0.1,0.1,0.1c0-0.3,0.2-0.6,0.2-0.9s0-0.3,0.2-0.5c0.2-0.3,0.3-0.6,0.4-1
		c0.5-0.1,1.1-0.2,1.5-0.3c0.2,0,0.2-0.2,0.5-0.3c0.1,0,0.3,0,0.5-0.2c0.8-0.3,1.7-0.8,2.4-1.1c0.4-0.1,0.6-0.4,1.1-0.6
		c0,0,0.1-0.2,0.2-0.2s0.1,0,0.2,0c0.2,0,0-0.2,0.2-0.1c0,0,0.4,0,0.4-0.2c0,0-0.3,0.1-0.3,0c0.3-0.1,0.7-0.4,1-0.5
		c0.1,0,0.1,0,0.2,0c0,0,0.1,0,0.1-0.1c0.4,0,0.6-0.1,0.8-0.1c0.1-0.1,0.4,0,0.5,0c0.3-0.1,0.8-0.2,1.2-0.3c0.6,0,1.1,0,1.5,0
		c0.3,0,0.5,0,0.6,0s0.2,0,0.3-0.1c0.1,0.1,0.3,0.1,0.4,0.1c0.2,0.1,0.3,0,0.5,0c0,0,0.3,0,0.4,0.1c0.6,0,1.1,0.1,1.6,0.2
		c1.7,0.3,3.3,1.2,3.2,2.7c0,0.3,0,0.3,0,0.4c0,0.5-0.2,1-0.3,1.5c-0.2,0.6-0.4,1.3-0.6,1.8c0,0.1-0.1,0.1-0.2,0.2v0.2
		c-0.1,0.3-0.4,0.5-0.6,0.6h-0.1c-0.1,0.1-0.1,0.2-0.1,0.2c-0.1,0.2-0.4,0.3-0.3,0.6c-0.1,0-0.1,0.1-0.2,0.1
		c-0.2,0.4-0.5,0.5-0.8,0.7c-0.2,0.1-0.4,0.3-0.6,0.4c-0.4,0.3-0.9,0.7-1.3,0.9c0.1,0.2,0.3,0,0.4,0.1c0,0.3-0.3,0.4-0.5,0.4
		c0,0.1-0.2,0.1-0.3,0.1c-0.2,0.1-0.3,0.3-0.6,0.4c-0.2,0.1-0.4,0.3-0.6,0.4c-0.1,0-0.3,0.1-0.4,0.1c-0.3,0.2-0.5,0.4-0.8,0.3
		c0,0.2-0.3,0.2-0.4,0.4c-0.2,0.1-0.4,0.4-0.6,0.5c-0.1,0,0,0.2-0.2,0.2c-0.1-0.1-0.2-0.1-0.3-0.2c0.2,0.2-0.1,0.1-0.2,0.2
		c-0.2,0-0.5,0.3-0.9,0.5c-0.1,0-0.2,0.1-0.3,0.1l-0.3,0.2c-0.2,0.1-0.3,0.4-0.7,0.6c-0.1,0-0.2,0-0.3,0.1c-0.3,0.1-0.3,0.5-0.5,0.6
		c-0.1,0.2-0.6,0.3-0.8,0.3c-0.1,0.2-0.5,0.4-0.8,0.4c-0.2,0,0,0.2-0.1,0.3c-0.1,0-0.2,0-0.3,0c0.1,0.1,0,0.1-0.1,0.2
		c-0.3,0-0.7,0.2-1,0.3c-0.1,0-0.1-0.2-0.2-0.2c-0.6,0.3-1.1,0.5-1.8,0.6c0,0.1,0,0.1,0,0.1c-0.2,0.2-0.5,0.2-0.7,0.2
		c0,0,0.1-0.2-0.1-0.2c-0.6,0-1.1,0.3-1.7,0.4c0,0,0,0.3-0.1,0.2c-0.2,0.1,0-0.2-0.1-0.2c-0.1,0.3-0.6,0.4-0.6,0.1
		c0-0.3,0.3-0.3,0.4-0.3c-0.3,0-0.5,0-0.9,0c0,0,0-0.1-0.1-0.2l-0.2,0.1c-0.4,0.1-0.3-0.4-0.6-0.5c-0.1-0.2-0.2-0.3-0.3-0.5
		c0,0,0,0.1-0.1,0.2c-0.3-0.4,0.1-1,0-1.5c-0.3,0.5-0.5,1.2-0.9,1.5c0.2,0.3-0.3,0.6-0.4,0.8c0.2,0.1,0,0.4,0,0.6
		c0.2,0,0.2,0.2,0.5,0.2c-0.1,0.1,0,0.2,0.1,0.3c0.1,0,0.2,0.3,0.3,0.3c0,0.1,0.2,0,0.3,0.1c0,0,0,0.1,0.1,0.1
		c0.3,0.1,0.4,0.2,0.5,0.2V40c0.2,0,0.3,0,0.4,0c0.1,0.3,0.6,0.3,0.7,0.3c0.3,0.2,0.8,0.3,1.2,0.3c0.2-0.1,0.2-0.3,0.4-0.3
		c0,0.2,0,0.2,0,0.3c0.2,0,0.3,0,0.4-0.1h0.3c0.1,0,0.1-0.1,0.3-0.2c0.2,0,0.4,0,0.5-0.3c-0.5,0-0.8,0.1-1.3,0.3c0,0,0.1-0.2,0-0.1
		c-0.2,0-0.3,0-0.4,0c0-0.1,0-0.1-0.2-0.2c-0.1,0.2-0.5,0.2-0.5,0c0.1-0.2,0.3-0.1,0.4-0.3c0.1,0.3,0.4,0,0.6,0s0,0.2,0.2,0.2
		c0-0.2,0.3-0.2,0.5-0.2c0.1,0,0.2-0.2,0.3-0.1c0,0,0,0.1,0.1,0.1c0,0,0-0.1,0.2-0.2c0,0,0.1,0.1,0.3,0c0.1-0.1,0.2-0.1,0.3-0.1
		c0.1,0,0.2,0,0.3,0c0.1,0,0.3-0.2,0.6-0.2c0.2,0,0.4,0,0.6-0.1c0.1-0.1,0.3-0.2,0.6-0.3c0.1,0,0.3,0,0.3,0c0.2,0,0.5-0.1,0.7-0.2
		c0.3-0.2,0.6-0.2,0.8-0.2c0,0.5-0.3,0.4-0.5,0.5c-0.1,0.1-0.2,0.1-0.2,0.1c-0.1,0-0.3,0.1-0.3,0.1s-0.2,0.2-0.3,0.2
		c-0.2,0-0.2,0-0.4,0c-0.2,0-0.2,0.1-0.3,0.1c-0.3,0.1-0.5,0.1-0.8,0.3c-0.2,0-0.6,0-0.7,0.1c-0.2,0-0.3,0-0.2,0.2
		c0.3,0.1,0.5-0.2,0.7-0.2c0.1,0,0.2,0,0.3,0c0.3,0,0.6-0.2,0.9-0.2c0.2,0,0.3,0,0.4,0c0.4,0,0.8-0.4,1-0.5c0.1,0,0.3,0,0.4,0
		c0,0,0.1-0.2,0.2-0.2c0.1-0.1,0.3-0.1,0.5-0.2c0,0.1-0.1,0.2,0,0.2c0-0.2,0.2,0,0.3,0c0.1,0,0.2-0.2,0.2-0.1c0.1,0,0.3,0,0.4,0.1
		c0.3-0.1,0.6-0.5,0.9-0.5c0.1,0.1-0.3,0.1,0,0.2c0.5,0,0.8-0.2,1.2-0.3c0.1-0.1,0.5-0.1,0.8-0.2c0.1-0.1,0.2-0.3,0.5-0.3
		c0,0,0.1,0,0.3,0c0.1,0,0.5-0.3,0.6-0.3c0.4-0.2,0.7-0.4,1.2-0.5c-0.3,0.3-0.8,0.3-1,0.8c-0.3,0-0.4,0.3-0.6,0.3
		c-0.2,0.3-0.6,0.3-0.9,0.5c0.9-0.2,1.6-0.7,2.3-1.1c1-0.4,2-1,2.8-1.5s1.5-0.9,2.1-1.7c0.2-0.1,0.3-0.1,0.5-0.3
		c0.3-0.3,0.7-0.9,1-0.6c0.1-0.2,0.2-0.2,0.3-0.2c0.3-0.1,0.3-0.4,0.4-0.5c0.1,0,0.1,0,0.3-0.1c0.1-0.2,0.2-0.4,0.4-0.4
		c0.1-0.2,0.3-0.2,0.3-0.4c0.2-0.1,0.4-0.3,0.6-0.4c0.2-0.2,0.3-0.4,0.6-0.7c0.2-0.2,0.5-0.2,0.5-0.6c0.1-0.1,0.3-0.1,0.3-0.1
		c0-0.1,0.3-0.3,0.3-0.5c0.1-0.1,0.1-0.1,0.1-0.3c0,0,0.1-0.1,0.2-0.1c0.1-0.2,0.2-0.5,0.3-0.7c0.1-0.3,0.3-1,0.3-1.3
		c0.2-0.2,0.2-0.5,0.3-0.9c0.2-1-0.1-2-0.3-2.9C339.1,22.9,339.1,22.8,339,22.6z M333.1,12.1c0.1,0,0,0.3,0,0.3
		C333.1,12.3,333,12.2,333.1,12.1z M314.7,27.7c0,0.2-0.1,0.3-0.1,0.5h-0.1c0-0.3,0.2-0.5,0.3-1C315,27.2,314.7,27.6,314.7,27.7z
		 M320.4,22.3c-0.2,0-0.2,0.1-0.5,0.2c-0.1,0-0.5,0.2-0.8,0.3c0.6-0.3,0.9-0.4,1.4-0.7C320.7,22.3,320.4,22.2,320.4,22.3z M320.6,22
		c0.1,0,0.3-0.1,0.4-0.1C320.9,22,320.8,22,320.6,22z M321.1,21.9c-0.1-0.2,0.2-0.1,0.3-0.3v-0.1c0.2,0,0.3-0.1,0.5-0.2
		c0.1,0,0.1-0.2,0.5-0.1C321.9,21.4,321.5,21.6,321.1,21.9z M327.4,15.6c-0.2,0.3-0.3,0.3-0.5,0.5c-0.6,0.3-1.1,0.6-1.6,1
		c-0.3,0.3-0.5,0.5-0.7,0.6c-0.1,0-0.4,0.1-0.7,0.2c-1.3,0.1-2.6,0.5-3.9,0.9c-0.5,0.1-1,0.3-1.5,0.4c0-0.5,0.2-0.9,0.4-1.4
		c0.2-0.4,0.3-1,0.6-1.6c0.2-0.5,0.3-1,0.4-1.4c0.3-1.7,0.8-3.2,1.1-4.9c0-0.3,0.1-0.6,0.2-0.7c0,0,0.7-0.1,1.1-0.2
		c0.8-0.1,1.7-0.1,2.3-0.3c0-0.1,0.2,0,0.3,0c0.2,0,0.3-0.1,0.5-0.2c0,0,0.2,0,0.3,0c0,0,0,0,0.1,0l0,0c0.2,0,0.4-0.1,0.6-0.1
		c0.1,0,0.4,0,0.6,0c0.3,0,0.8,0,1.2,0c0.2,0,0.4,0.1,0.4,0c0.2,0,0.1,0,0.3,0c0.1,0,0.8,0.2,0.9,0.2l0.2,0.1
		c0.1,0.1,0.3,0.2,0.4,0.3c0.6,0.5,1,1.2,0.7,2.3c-0.3,1-1.1,2-2,2.8C328.7,14.6,328,15.1,327.4,15.6z M314,38.6
		c0-0.2,0.2,0,0.1-0.1c0,0,0,0,0,0.1C314.2,38.6,314,38.6,314,38.6z M321.4,38.5c0-0.1,0.2-0.1,0.3-0.1
		C321.7,38.5,321.6,38.5,321.4,38.5z M322,38.6c-0.1-0.1,0-0.1,0.1-0.2C322.2,38.5,322,38.5,322,38.6z M322.4,38.3
		c0,0,0.1-0.1,0.2-0.1C322.5,38.2,322.5,38.2,322.4,38.3z M322.5,38.7C322.4,38.6,322.5,38.5,322.5,38.7
		C322.6,38.7,322.5,38.6,322.5,38.7z M322.6,38.6c0-0.2,0.1-0.2,0.2-0.2C322.9,38.4,322.7,38.6,322.6,38.6z M322.7,38.2
		c0-0.2,0.3-0.2,0.4-0.3C323,38.1,322.9,38.2,322.7,38.2z M323,38.4C322.9,38.4,323,38.4,323,38.4L323,38.4z M323,38.3
		c0-0.1,0.2-0.1,0.3-0.1C323.2,38.3,323.1,38.3,323,38.3z M325.7,37.1c-0.2,0.2-0.4,0.3-0.5,0.4C325.3,37.4,325.4,37.2,325.7,37.1z
		 M324.8,37.5c0.1,0,0.2,0.1,0.2,0.1c-0.1,0.1-0.2,0.1-0.3,0.1C324.7,37.7,324.7,37.5,324.8,37.5z M323.6,38.2
		c0.1-0.2,0.6-0.3,0.9-0.3C324.3,38,324,38.1,323.6,38.2z M325.8,37.6c-0.5,0.1-0.9,0.4-1.3,0.6c-0.1-0.1,0.3-0.2,0.3-0.2
		c0.3-0.1,0.8-0.4,1-0.5C325.8,37.5,325.8,37.6,325.8,37.6z M325.9,37.5c-0.1,0,0.1-0.1,0.1-0.1C326.1,37.4,325.9,37.4,325.9,37.5z
		 M326,37.4c0.1-0.1,0.2-0.2,0.2-0.1C326.2,37.4,326.1,37.4,326,37.4z M328,36.4c-0.3,0.2-0.3,0.5-0.6,0.3c-0.2,0.3-0.4,0.5-0.8,0.4
		c0-0.2,0.3-0.2,0.4-0.4c0.3,0.2,0.3-0.1,0.5-0.1C327.6,36.5,327.8,36.4,328,36.4c0.6-0.3,1.1-0.8,1.5-1c0.1,0,0.1,0,0.1,0
		c-0.1,0.2-0.3,0.3-0.4,0.3c-0.1,0.1-0.1,0-0.2,0c0,0.1,0,0.2,0,0.2c-0.1,0.1-0.3,0.1-0.4,0.2c0,0,0,0.1-0.1,0.2
		C328.4,36.3,328.2,36.3,328,36.4z M328.8,36.7C328.8,36.7,328.9,36.6,328.8,36.7C329,36.6,328.9,36.7,328.8,36.7z M329.1,36.5
		c0-0.1,0.1-0.2,0.3-0.1C329.3,36.5,329.3,36.5,329.1,36.5z M329.2,36.3c-0.1,0-0.3,0.3-0.5,0.3c-0.1,0.1-0.3,0.2-0.4,0.2
		c0.4-0.4,0.8-0.7,1.4-0.8C329.7,36.4,329.4,36.3,329.2,36.3z M330.3,35.9c-0.1-0.1-0.4,0-0.5,0.1c0-0.2,0.4-0.3,0.5-0.5
		c0.1,0,0.2,0,0.3,0C330.5,35.8,330.3,35.6,330.3,35.9z M330.6,35.5c0.2-0.3,0.3-0.3,0.6-0.5C331.1,35.2,330.9,35.4,330.6,35.5z
		 M332.7,18.2c0.9,0.2,1.5,0.4,2.2,0.8C334.2,18.9,333.4,18.5,332.7,18.2z M335,19c0.1,0,0.3,0.3,0.5,0.3
		C335.3,19.3,335.2,19.1,335,19z"/>
	<path class="st0" d="M366,38.9c-0.1-0.1-0.4,0-0.6-0.2v-0.1c-0.3-0.3-0.4-1-0.5-1.5c-0.2-1.5,0.2-2.9,0.5-4.1
		c0.1-0.7,0.2-1.3,0.4-1.8c0,0,0.3-0.2,0.3-0.3c0.3-0.6,0.5-1.5,0.7-2.2c0.3-0.3,0.5-0.8,0.8-1.2c-0.3-0.2-0.6-0.3-0.5-0.9
		c-0.2-0.1-0.3-0.2-0.4-0.3c-0.3-0.4-0.3-0.6-0.6-0.7c0,0,0-0.2-0.1-0.2c-0.1-0.1-0.3-0.2-0.4-0.2c-0.2-0.2-0.5-0.3-0.7-0.5
		c-0.5-0.2-1.2,0-1.5-0.6c0.5-0.9,1-1.7,1.3-2.6c0.5-1.4,0.9-2.6,0.8-4.6c0,0-0.1-0.1-0.1-0.3c-0.4-0.5-1.1-0.8-1.6-1.3
		c-0.1-0.2-0.2-0.1-0.2-0.1c-0.2,0.2-0.4,0.2-0.5,0.3c-0.4,0.3-1.3,1.2-1.5,1.5c-0.4,0.4-0.7,0.7-0.8,1c0,0-0.2,0.1-0.2,0.2
		c0,0,0,0.1,0,0.2c0,0-0.2-0.1-0.3,0c0,0,0,0.2,0,0.3c0,0-0.2,0-0.3,0.1c-0.2,0.4-0.4,0.9-0.5,1.2c-0.2,0.5-0.6,2.1-0.5,2.9l0.3,0.3
		c0.2,0.7,0,0.2,0.3,0.6c0.2,0.2,0.4,0.3,0.6,0.5c-0.3,0.5-0.3,0.5-0.7,1.1c-0.6,0.7-0.7,0.8-1,1.1c-0.5,0.5-0.5,0.5-1.1,1.2
		c-0.3,0.4-1.1,0.9-1.8,1.5l0,0c-0.1,0-0.1,0.1-0.2,0.2c-1.5,1-3.7,2.1-5.8,2.6c-0.9,0.2-2.2,0.4-3.1,0.4c-0.2-0.1-0.8-0.3-0.9-0.3
		c-1.5-0.2-1.2-1.9-0.9-2.3c0.4,0,0.6-0.3,0.9-0.5c0-0.1,0.3,0,0.4-0.1c0.4-0.2,0.7-0.6,0.9-0.7c0.1-0.1,0.4-0.2,0.5-0.3
		c0,0,1.1-0.6,1.2-0.8c0.5-0.4,1.2-0.7,1.6-1.1c0-0.2,0.5-0.4,0.5-0.6c0.3-0.4,0.7-0.6,1.1-1.1c0.1-0.4,0.5-0.6,0.3-1.4
		c0-0.1-0.2-0.2-0.3-0.3c-0.1-0.5-1.4-1.2-2.1-1.5c-0.2,0-0.3,0.2-0.3,0c-0.2,0-0.2-0.4-0.5-0.4c-0.8-0.2-1.8-0.4-2.7,0.3
		c-0.4,0.3-0.6,0.5-1.1,0.6c-0.4,0.4-0.8,0.6-1,0.9c-0.6,0.7-1.3,1.3-1.5,1.8c-0.2,0.2-0.3,0.4-0.3,0.6c-0.1,0.1-0.3,0.3-0.5,0.4
		c0,0.2,0,0.4-0.1,0.7c-0.2,0.5-1.2,2.3-0.5,2.9c-0.1,0.2-0.2,0.2-0.3,0.2c0.2,0.3-0.3,0.7-0.1,1.2c0,0.1,0.1,0.4,0.3,0.5
		c0.1,0,0.3,0,0.4,0c0.5,0.3,0.8,1.5,1.4,1.7c0.1,0,1.4,0.6,1.5,0.6c0.5,0.2,1,0.1,1.5,0.3c0.2,0,0.3,0,0.5,0.1c0.5,0.1,1,0.1,1.3,0
		c0.7,0,1.4-0.2,2-0.4c0.3,0,0.7,0,1-0.2c0.5-0.1,0.9-0.4,1.2-0.3c0.3-0.4,0.6-0.3,1-0.6c0.3-0.3,0.9-0.5,1.3-0.6
		c0.6-0.4,0.5-0.6,1.1-0.9c0.2-0.1,0.8-0.6,0.9-0.6s0.5-0.6,0.7-0.6c0-0.1,0.5-0.4,0.6-0.5c0-0.1,0.1-0.1,0.2-0.2
		c0.5-0.3,0.8-0.5,1.2-1c0.4-0.4,0.8-0.4,1-1.1c0-0.1,0.8-0.6,0.9-0.7c0.6-0.8,0.4-0.5,1-1.4c0.3-0.2,0.3,0.3,0.8,0.3
		c0.3,0.3,0.8,0.3,0.9,0.7c-0.8,1.7-1.6,4.9-1.6,7.7c0,0.9,0,1.7,0.3,2.4c0,0.3,0.2,0.5,0.3,0.8c0.1,0.2,0.3,1,0.5,1.2
		c0.6,1,2.2,1.6,3.8,1.4c0.5-0.1,1.1-0.4,1.5-0.8c-0.6,0-1.1,0.3-1.7,0.2C365.9,39.1,366.2,39.1,366,38.9z M348.7,24.3
		c0,0,0-0.1,0.3,0c0,0,0.1,0.3,0,0.6c-0.1,0.3-0.6,0.7-0.9,0.9c-0.9,0.6-1.8,1.5-2.7,2c0,0-0.2,0.1-0.2-0.1
		C346.1,26.5,347.3,25,348.7,24.3z M363,20c-0.3,0.9-0.9,1.7-1.4,2.8c-0.3-1.4,1-2.1,1.2-3.2c0.1-0.1,0.3,0,0.3-0.2
		C363.2,19.5,363.1,19.8,363,20z"/>
	<path class="st0" d="M420.1,20.8c0.5,0.6,0.6,0.8,1.2,0.9c0.2,0,0.3,0.1,0.6,0.1c0.3-0.5,0.7-1.1,0.7-1.8c-1.3-0.4-3.1-1.3-3.1,0.3
		C419.5,20.3,419.7,20.5,420.1,20.8z"/>
	<path class="st0" d="M441.2,22c-0.5-0.1-0.9,0.1-1.4,0c-0.3,0-0.6-0.2-0.8-0.1c-0.3,0.1-0.4,0.4-0.7,0.7c-0.2,0.1-0.3,0.1-0.5,0.2
		c0,0,0,0.2,0,0.3c-0.2,0.1-0.5,0.2-0.6,0.5c-0.2,0.1-0.4,0.1-0.5,0.2c-1,0.9-1.9,1.9-2.6,2.6c0,0.1,0,0.2-0.1,0.2h-0.2
		c0,0.1,0,0.2,0,0.2c-0.2,0.2-0.3,0.2-0.5,0.3c-0.1,0.1-0.1,0.4-0.3,0.3c0.3-1.1,0.3-2.4,0.5-3.5c0.3-0.5,0.3-0.9,0.3-1.2l-0.1-0.3
		c-0.2-0.3-2.2-0.8-2.7-0.6c-0.4,0.1-0.1,0.6-0.1,1c-0.2,0-0.3,0.1-0.4,0.2c-0.4,1.4-0.6,2.6-1,3.8c-0.1,0.4-0.2,0.8-0.3,1.3
		c-0.2,0.1-0.4,0.2-0.5,0.3c-0.3,0.3-0.7,0.4-0.9,0.5c0,0,0,0.3-0.1,0.3c-0.5,0.3-0.9,0.6-1.2,0.6c-0.3,0.2-0.6,0.3-0.8,0.4
		c-0.3,0.3-0.6,0.5-1.1,0.7c-1,0.6-2.6,1.3-3.4,1.9c-0.9,0.6-1.9,0.8-3.1,1c-0.2-0.9,0.6-1.9,0.8-2.6c0.1-0.1,0.1-0.3,0.1-0.6
		c0.1-0.3,0.4-0.5,0.5-0.9c0.1-0.1,0.2-0.4,0.2-0.5c0-0.2,0-0.3,0.2-0.5c0.3-0.8,0.3-1.6,0.5-2.2c0.3-0.4,0.6-0.7,0.6-1.2
		c-0.7-0.6-2.1-1.4-3.2-0.8c-0.6,0.7-1.2,2-1.4,2.8c0,0.3-0.3,0.4-0.2,0.5c-0.1,0.2-0.2,0.4-0.2,0.6c0,0,0,0-0.1,0l-0.6,0.4
		c-0.1,0.1-0.2,0.1-0.3,0.2c-0.7,0.5-0.7,0.4-1.3,0.8c-0.1,0-0.1,0.2-0.3,0.2l-1,0.6c-0.8,0.5-0.9,0.6-1.7,1.2
		c-1.3,1.2-2.7,1.7-4,2.9l-1.5,1.4l-1,0.9l-1,0.8c-0.2,0.1-0.4,0.2-0.6,0.3c-0.5-0.3-0.8-0.8-1-1.3l-0.1-0.3c0-0.1-0.3-0.2-0.3-0.3
		c-0.4-0.8-0.6-1.7-0.5-2.8c-0.1,0-0.1,0-0.2,0c0-0.2,0-0.2,0-0.2c-0.1-0.7-0.2-0.7-0.1-1.5c0-0.9,0.5-1.9,0.6-2.7
		c0.2-1.1,0.3-2,0.5-2.9c0.1-0.2,0.3-0.4,0.4-0.7l0.3-1.1c0.3-0.6,0.8-1.2,1.2-1.7c0.3-0.3,0.4-0.8,0.6-1c0.2-0.3,0.2-0.3,0.4-0.5
		c0-0.1,0.3-0.1,0.4-0.3c0-0.1,0-0.3,0.1-0.5h0.2c0.6-0.6,1.3-1.2,1.6-1.8l0.2-0.1c0.4-0.4,0.6-0.8,0.9-1.2c1.7-2.1,3.8-4.3,4.8-6.9
		c0.2-0.5,0.3-1.5,0.4-1.6c0.1-0.2,0.1-0.6,0.2-0.9s0.3-0.6,0.4-1.1c0,0-0.2,0-0.1-0.2c0.1-0.6,0.1-1.6,0.1-2.4
		c-0.2-0.5-0.9-0.4-1.2-0.7c-0.5-0.2-0.9-0.6-1.8-0.4c-0.3,0.3-0.6,0.8-1.3,0.8c-1.2,1.6-3,2.7-4.1,4.6c-0.5,0-0.6,0.5-0.8,0.9
		l-0.5,0.6c-0.1,0-0.1,0.3-0.2,0.4c0,0.1-0.2,0.3-0.3,0.4c-0.1,0.2-0.1,0.5-0.3,0.6c-0.2,0.3-0.5,0.6-0.7,0.9
		c-0.2,0.2-0.3,0.4-0.3,0.5l-0.7,0.9c-0.2,0.2-0.2,0.4-0.3,0.6c-0.1,0.1-0.3,0.2-0.4,0.3c-0.6,0.9-0.9,2-1.3,3
		c-0.4,1.2-1.1,2.3-1.5,3.4c-0.6,1.8-1,3.4-1.4,5.2c-0.1,0.3-0.3,1.2-0.4,2.1c-0.5,0.6-0.2,0.3-0.5,0.7l0,0
		c-0.2,0.1-0.3,0.1-0.4,0.2c-0.6,0.4-0.6,0.4-1.4,0.9c-0.7,0.4-1.5,0.5-2,1.1c0,0-1.4,0.6-1.6,0.8c-0.3,0.2-2.6,1.5-2.9,1.6
		c-0.2,0.2,0.3-0.4,0-0.5c-0.2-0.7,0.2-1.7,0.1-2.3c0-0.6,0.1-0.6,0.2-1.2c0-0.4,0.2-0.8,0.2-1.3c0-0.2-0.2-0.4-0.1-0.6
		c-0.9-0.6-1.7-1.1-2.9-1.4c-0.3-0.8-0.9-1.5-1.4-1.8c-0.3,0-0.4-0.2-0.7-0.5c-1-0.5-2.2-0.7-3.5-1c-0.3,0-0.3,0.3-0.4,0.3
		c0,0-0.3,0-0.4,0.1c-0.3,0.1-0.4,0.4-0.8,0.7c-0.1,0-0.3,0-0.5,0.1c-0.6,0.3-1.2,0.6-1.7,1c-0.6,0.3-1.1,0.7-1.5,1
		c-0.3,0.2-0.8,0.7-1.1,0.9c0,0-0.3,0.1-0.3,0.3c-0.1-0.1,0,0,0,0.1c-0.1,0-0.2,0-0.2,0c-0.4,0.5-0.6,0.6-0.8,0.9
		c-0.2,0.2-0.3,0.3-0.4,0.4c-1.1,0.6-3,2.3-3.3,3.4c-0.1,0.5,0.1,1.3,0.2,1.4c0.3,0.4,0.5,0.8,0.7,1.1c0.1,0.2,0.3,0.5,0.3,0.6
		c0.7,0.7,1.4,0.7,2.3,0.6c0.1-0.1,1.1-0.4,1.2-0.5c0.1,0,0.1,0,0.3-0.1c0-0.2,0.3-0.3,0.5-0.3c0.2-0.1,0.3-0.1,0.5-0.2
		c0.1-0.1,0.3-0.4,0.6-0.5c0,0,0.1,0.1,0.2,0s0.3-0.3,0.5-0.3c0.8-0.5,1.8-1,2.7-1.5c1.8-1,3.8-2.2,5.3-2.9c0.3,0.4,1.1,0.5,1.4,1
		c-0.4,2.1-0.6,2.6-1,5.1c-1.8,2-3.8,4.6-4.6,7.6c-0.3,0.6-0.7,1.1-0.9,1.5c-0.1,0.1-0.1,0.4-0.3,0.6c-0.1,0.3-0.4,0.7-0.4,1
		c0,0.1-0.2,0.2-0.2,0.3c-0.2,0.3-0.2,0.4-0.3,0.7c-0.4,1.3-1,2.6-1.5,4.1c-0.3,1-0.4,2-0.6,3.2c-0.1,0.6-0.3,1.1-0.4,1.5
		c0,0.3,0.1,0.3,0.1,0.5c0.2,0.7,0,1.3-0.1,1.7c0.9,0,2,0.4,2.9,0.8c0.4,0.1,0.2-0.3,0.4-0.3c0.1-0.1,0.5,0.1,0.6,0
		c0.2,0,0.6-0.4,1-0.7c0.1-0.1,0.2,0,0.3,0c0.4-0.1,0.8-0.6,0.9-0.6c0.2-0.3,0.3-0.5,0.3-0.7c0.2-0.3,0.4-0.4,0.4-0.6
		c0.2-0.1,0.3-0.3,0.4-0.7c0-0.1,0.1-0.2,0.1-0.2c0.1-0.2,0.1-0.3,0.3-0.4c0-0.1,0.1-0.2,0.2-0.3c0.1-0.2,0.1-0.2,0.1-0.3
		c0.4-0.8,0.8-1.5,1.1-2.3c0.3-1,0.8-2,1.2-3.1c0.2-0.4,0.3-0.9,0.4-1.3c0.3-0.6,0.3-1.2,0.6-1.7c0.3-0.8,0.5-1.6,0.7-2.3
		c0.3-0.7,0.9-4.3,1.3-5c0.5-0.8-0.6,1,1-1.6c0.1-0.3,0.3-0.6,0.4-0.7c0.4-0.3,1-0.9,1-0.9c0.1-0.2,0.8-0.8,0.9-0.9
		c0.4-0.3,0.6-0.5,1.2-0.8c0.8-0.6,1.2-0.8,1.2-0.9c0.4-0.4,1-0.7,1.5-1.2c0.3-0.3,0.3-0.3,0.9-0.6c0.3-0.2,0.5-0.4,0.8-0.6
		c0.2,1.5,0.3,3,0.6,4.2c0.2,0.4,0.3,0.9,0.5,1.2c0,0.1,0.2,0.3,0.4,0.5c0,0.2,0.1,0.3,0.3,0.6c0.4,0.7,0.9,2,1.5,2.3l0.1,0.2
		c0.3,0.3,0.9,0.4,1.2,0.5c0,0,0.1,0.1,0.2,0.1c0.6,0.3,1.7,0.4,2.7,0.4c1.9-0.2,3.7-1.4,5.1-2.8c0.3-0.3,0.6-0.7,0.9-1
		c0.6-0.8,1.1-1.1,1.5-1.8l0.2-0.1v-0.1c0-0.1,0.1-0.1,0.2-0.2c0,0-0.1-0.2,0-0.2c0-0.1,0.3-0.2,0.3-0.5c0.4-0.3,0.6-0.3,0.9-0.7
		c0.6-0.4,0.6-0.4,1.1-0.9c0.1-0.2,0.7-0.6,0.8-0.7c0.5-0.5,0.4-0.2,0.9-0.8c0.1,0,0.2-0.1,0.2-0.1c-0.1,0.5-0.2,1.1-0.2,1.5
		c0,1,0.3,2,0.8,2.5c0.4,0.4,1.1,0.7,1.9,1s1.4,0.5,2,0.5s1.1-0.1,1.8-0.3c0.4-0.2,0.4-0.3,0.6-0.3c0.4-0.1,0.7-0.2,0.9-0.2
		c0,0,0.3-0.3,0.4-0.5c0.2-0.1,0.3-0.2,0.5-0.2c0.7-0.4,1.2-0.7,1.6-1c0.6-0.4,1-0.6,1.5-1s1-0.7,1.4-1.1c0,0.3-0.1,0.7-0.1,1
		c0,0.8,0.2,1.5,0.6,2c0.6,0.1,1.2,0.1,1.5,0.4c-0.3-0.6,0.6-0.3,0.6-0.6c0.1-0.3,0.6-0.4,0.8-0.6c0.1-0.2,0.3-0.5,0.5-0.8
		c0.1-0.3,0.3-0.4,0.4-0.5c0.1-0.2,0.3-0.5,0.4-0.8c0.4-0.3,0.6-0.8,1-1.2c0.4-0.6,0.7-1.1,1.2-1.6c0-0.2,0.2-0.2,0.3-0.3
		c0.2-0.3,0.2-0.5,0.3-0.6c0.2-0.3,0.5-0.4,0.6-0.8c0.1,0.8-0.4,1.6-0.6,2.5c-0.4,1.5-0.5,3.1-0.4,4.7c0,0.4,0,0.8,0.1,1.1
		c0.2,0.7,0.7,1.2,0.6,1.7c0.3,0.3,0.8,1,1.5,1.4c0.6,0.3,1.6,0.7,2.3,0.6c0.1-0.1,0.1-0.2,0.3-0.3c0,0,0.3,0,0.4,0
		c0.3-0.2,0.3-0.6,0.3-0.9c-0.9,0.3-1.7-0.6-1.9-1c-0.3-0.6-0.2-1.2,0-1.7c0-0.3,0-0.5,0-0.8c0.2-0.9,0.5-1.6,0.8-2.5
		c0.1-0.4,0.3-0.8,0.4-1.2c0.3-0.9,0.4-1.8,0.6-2.6c0.1-0.3,0.3-0.8,0.5-1.1c0.1-0.6,0.2-1.2,0.2-1.9s0-1.4-0.1-2
		C441.4,22.4,441.4,22.1,441.2,22z M408.3,10.7c0.3-0.6,0.6-1.2,1.1-1.8c0.2-0.1,0.2-0.3,0.4-0.5c0.2-0.2,0.5-0.7,0.7-0.9
		c0.4-0.6,0.9-1.5,1.7-1.8c0.2,0,0.2,0.1,0.2,0.1v0.3c-0.9,1.5-1.5,2.9-2.3,4.6l-0.3,0.1c-0.3,0.6-0.5,1.2-0.8,1.7
		c-0.5,1-1.3,1.8-2,2.8c0,0.1-0.3,0.4-0.4,0.5c0,0,0,0.1,0,0.2c-0.1,0.1-0.3,0.2-0.3,0.3c-0.3,0.3-0.5,0.7-0.9,1
		c-0.2,0.2-0.4,0.5-0.7,0.5C405.8,15.6,406.9,12.9,408.3,10.7z M381.7,28.1c-2.7,1-5.3,2.2-8,3.2c-0.9,0.3-1.7,1-2.8,1
		c0.3-0.6,0.5-1.2,1.1-1.7c0.3-0.5,0.7-0.9,1.3-1.5c0.5-0.4,0.8-1,1.2-1.4c0.3-0.1,0.5-0.3,0.6-0.5c0.2-0.1,0.4-0.1,0.6-0.3
		c0.1-0.1,0.1-0.3,0.2-0.3c0.2,0,0.5-0.3,0.8-0.3c0.3-0.2,0.5-0.4,0.8-0.5c0.1-0.1,0.2-0.2,0.3-0.3c0.2-0.2,0.3-0.1,0.5-0.3
		c0.2,0,0.3-0.1,0.4-0.2c0,0,0.6-0.3,0.9-0.3c0.1,0,0.5,0.3,1.1,0.1c-0.1,0.4,0.3,0.5,0.5,0.9c0,0.1,0,0.2,0.1,0.3
		c0.1,0.2,0.3,0.4,0.4,0.6s0,0.3,0,0.3C381.6,27.3,381.8,27.6,381.7,28.1z M379,52.1c-0.2,0.5-0.3,1.2-0.9,1.3
		c0-0.6,0.2-1.3,0.4-1.7c0.2-0.6,0.4-1.2,0.6-1.9c0.1-0.1,0.4-0.3,0.6-0.5c0-0.2,0-0.3,0-0.5c0.3-0.4,0.8-1.1,1-1.8
		C380.7,48.8,380,50.7,379,52.1z"/>
	<path class="st0" d="M472,28.3c-0.6,0.2-1.7,0.6-2.1,0.9c-0.6,0.4-0.6,0.4-1.4,0.9c-0.7,0.4-1.5,0.5-2,1.1c0,0-1.4,0.6-1.6,0.8
		c-0.3,0.2-2.6,1.5-2.9,1.6c-0.2,0.2,0.3-0.4,0-0.5c-0.2-0.7,0.2-1.7,0.1-2.3c0-0.6,0.1-0.6,0.2-1.2c0-0.4,0.2-0.8,0.2-1.3
		c0-0.2-0.2-0.4-0.1-0.6c-0.9-0.6-1.7-1.1-2.9-1.4c-0.3-0.8-0.9-1.5-1.4-1.8c-0.3,0-0.4-0.2-0.7-0.5c-1-0.5-2.2-0.7-3.5-1
		c-0.3,0-0.3,0.3-0.4,0.3c0,0-0.3,0-0.4,0.1c-0.3,0.1-0.4,0.4-0.8,0.7c-0.1,0-0.3,0-0.5,0.1c-0.6,0.3-1.2,0.6-1.7,1
		c-0.6,0.3-1.1,0.7-1.5,1c-0.3,0.2-0.8,0.7-1.1,0.9c0,0-0.3,0.1-0.3,0.3c-0.1-0.1,0,0,0,0.1c-0.1,0-0.2,0-0.2,0
		c-0.4,0.5-0.6,0.6-0.8,0.9c-0.2,0.2-0.3,0.3-0.4,0.4c-1.1,0.6-3,2.3-3.3,3.4c-0.1,0.5,0.1,1.3,0.2,1.4c0.3,0.4,0.5,0.8,0.7,1.1
		c0.1,0.2,0.3,0.5,0.3,0.6c0.7,0.7,1.4,0.7,2.3,0.6c0.1-0.1,1.1-0.4,1.2-0.5c0.1,0,0.1,0,0.3-0.1c0-0.2,0.3-0.3,0.5-0.3
		c0.2-0.1,0.3-0.1,0.5-0.2c0.1-0.1,0.3-0.4,0.6-0.5c0,0,0.1,0.1,0.2,0s0.3-0.3,0.5-0.3c0.8-0.5,1.8-1,2.7-1.5c1.8-1,3.8-2.2,5.3-2.9
		c0.3,0.4,1.1,0.5,1.4,1c-0.4,2.1-0.6,2.6-1,5.1c-1.8,2-3.8,4.6-4.6,7.6c-0.3,0.6-0.7,1.1-0.9,1.5c-0.1,0.1-0.1,0.4-0.3,0.6
		c-0.1,0.3-0.4,0.7-0.4,1c0,0.1-0.2,0.2-0.2,0.3c-0.2,0.3-0.2,0.4-0.3,0.7c-0.4,1.3-1,2.6-1.5,4.1c-0.3,1-0.4,2-0.6,3.2
		c-0.1,0.6-0.3,1.1-0.4,1.5c0,0.3,0.1,0.3,0.1,0.5c0.2,0.7,0,1.3-0.1,1.7c0.9,0,2,0.4,2.9,0.8c0.4,0.1,0.2-0.3,0.4-0.3
		c0.1-0.1,0.5,0.1,0.6,0c0.2,0,0.6-0.4,1-0.7c0.1-0.1,0.2,0,0.3,0c0.4-0.1,0.8-0.6,0.9-0.6c0.2-0.3,0.3-0.5,0.3-0.7
		c0.2-0.3,0.4-0.4,0.4-0.6c0.2-0.1,0.3-0.3,0.4-0.7c0-0.1,0.1-0.2,0.1-0.2c0.1-0.2,0.1-0.3,0.3-0.4c0-0.1,0.1-0.2,0.2-0.3
		c0.1-0.2,0.1-0.2,0.1-0.3c0.4-0.8,0.8-1.5,1.1-2.3c0.3-1,0.8-2,1.2-3.1c0.2-0.4,0.3-0.9,0.4-1.3c0.3-0.6,0.3-1.2,0.6-1.7
		c0.3-0.8,0.5-1.6,0.7-2.3c0.3-0.7,0.9-4.3,1.3-5c0.5-0.8-0.6,1,1-1.6c0.1-0.3,0.3-0.6,0.4-0.7c0.4-0.3,1-0.9,1-0.9
		c0.1-0.2,0.8-0.8,0.9-0.9c0.4-0.3,0.6-0.5,1.2-0.8c0.8-0.6,1.2-0.8,1.2-0.9c0.4-0.4,1-0.7,1.5-1.2c0.3-0.3,0.3-0.3,0.9-0.6
		c0.4-0.3,0.7-0.5,1.1-0.8C471.5,29.6,472.6,29.2,472,28.3z M456.4,28.1c-2.7,1-5.3,2.2-8,3.2c-0.9,0.3-1.7,1-2.8,1
		c0.3-0.6,0.5-1.2,1.1-1.7c0.3-0.5,0.7-0.9,1.3-1.5c0.5-0.4,0.8-1,1.2-1.4c0.3-0.1,0.5-0.3,0.6-0.5c0.2-0.1,0.4-0.1,0.6-0.3
		c0.1-0.1,0.1-0.3,0.2-0.3c0.2,0,0.5-0.3,0.8-0.3c0.3-0.2,0.5-0.4,0.8-0.5c0.1-0.1,0.2-0.2,0.3-0.3c0.2-0.2,0.3-0.1,0.5-0.3
		c0.2,0,0.3-0.1,0.4-0.2c0,0,0.6-0.3,0.9-0.3c0.1,0,0.5,0.3,1.1,0.1c-0.1,0.4,0.3,0.5,0.5,0.9c0,0.1,0,0.2,0.1,0.3
		c0.1,0.2,0.3,0.4,0.4,0.6s0,0.3,0,0.3C456.2,27.3,456.5,27.6,456.4,28.1z M453.7,52.1c-0.2,0.5-0.3,1.2-0.9,1.3
		c0-0.6,0.2-1.3,0.4-1.7c0.2-0.6,0.4-1.2,0.6-1.9c0.1-0.1,0.4-0.3,0.6-0.5c0-0.2,0-0.3,0-0.5c0.3-0.4,0.8-1.1,1-1.8
		C455.4,48.8,454.6,50.7,453.7,52.1z"/>
</g>
</svg>
